<svg width="213" height="284" viewBox="0 0 213 284" fill="none" xmlns="http://www.w3.org/2000/svg">
<path fill-rule="evenodd" clip-rule="evenodd" d="M111.756 36.0078C108.885 32.1175 107.082 27.4698 107.789 22.4526C109.824 7.99651 129.823 12.6064 133.244 20.2137C136.665 27.8209 134.897 46.3868 129.721 47.3417C127.657 47.7226 123.428 46.1404 119.217 43.1834L120.611 62.8966L104.319 61.7574L111.756 36.0078Z" fill="#915B3C"/>
<path fill-rule="evenodd" clip-rule="evenodd" d="M101.024 17.1207C100.534 16.5625 100.299 15.7981 100.1 15.074C99.8938 14.3218 99.6951 13.5625 99.5773 12.7864C99.342 11.2356 99.4616 9.47947 100.634 8.37004C101.574 7.48039 102.914 7.14562 104.13 7.13754C104.941 7.13209 105.761 7.30284 106.515 7.61084C107.264 7.9164 107.89 8.46475 108.611 8.82838C108.755 7.18497 109.157 5.48302 110.09 4.13647C110.988 2.84088 112.321 2.17187 113.794 2.07317C115.305 1.9719 116.759 2.42557 118.048 3.244C118.371 3.44897 118.69 3.66236 118.993 3.89981C119.247 4.09865 119.509 4.33504 119.816 4.43019C120.159 4.53635 120.346 4.3472 120.59 4.10885C120.876 3.8294 121.194 3.58782 121.527 3.37725C122.998 2.44637 124.864 2.1518 126.442 2.88182C127.17 3.21817 127.862 3.75146 128.323 4.45177C128.733 5.07603 128.99 6.03869 129.584 6.49521C129.837 6.689 130.04 6.46984 130.293 6.31505C130.673 6.08246 131.038 5.82202 131.421 5.59676C131.96 5.28027 132.536 5.05558 133.142 4.95929C134.029 4.81832 135.233 4.95006 135.403 6.11123C135.466 6.54739 135.362 7.00182 135.302 7.43255C135.219 8.02399 135.134 8.61511 135.041 9.20497C134.97 9.65285 134.89 10.0846 134.774 10.5211C134.712 10.7539 134.539 11.1837 134.624 11.4269C134.73 11.731 135.325 11.604 135.573 11.6317C136.064 11.6864 136.553 11.8073 136.993 12.0495C137.334 12.2372 137.689 12.5029 137.809 12.9177C137.883 13.1725 137.841 13.4259 137.78 13.6784C137.707 13.9815 137.755 14.1483 137.772 14.4604C138.456 14.1811 140.798 13.6179 141.003 14.823C141.072 15.2242 140.822 15.6548 140.632 15.9759C140.298 16.539 139.878 17.0456 139.45 17.5269C138.558 18.531 137.518 19.3781 136.413 20.0874C137.605 20.7205 137.814 22.3566 136.681 23.2435C136.181 23.6351 135.542 23.6854 134.95 23.6167C134.734 23.5916 134.427 23.4862 134.253 23.5121C134.16 23.526 134.056 23.5971 133.928 23.5969C133.086 23.5957 132.155 23.3278 131.349 23.0847C129.914 22.6516 128.581 21.864 127.527 20.7326C127.257 20.4424 127.029 20.2702 126.639 20.247C126.298 20.2266 125.956 20.2967 125.615 20.2815C124.711 20.2415 123.929 19.7437 123.112 19.3916C122.981 20.5195 122.572 21.7432 122.038 22.7287C121.602 23.5324 120.806 23.598 120.026 23.6166C117.533 23.6765 115.066 23.2426 112.586 23.0726C114.948 23.7831 117.413 24.1802 119.748 24.9851C120.803 25.3489 119.931 26.0163 119.436 26.4867C118.621 27.2612 117.986 28.247 117.52 29.2998C116.453 27.6869 114.448 26.5332 112.576 26.8748C110.508 27.2523 108.885 29.9 110.046 31.9663C110.72 33.1658 112.052 33.7037 113.151 34.2757C112.202 35.1332 111.893 36.476 111.281 37.5825C110.979 38.1282 110.566 38.7401 109.965 38.8956C109.743 38.9532 109.488 38.9416 109.304 39.1067C109.077 39.311 109.009 39.5526 108.725 39.722C107.591 40.3983 105.905 40.2222 105.015 39.1739C104.21 38.2258 104.534 36.8373 105.321 35.9882C104.202 35.4272 102.146 34.6625 102.729 32.899C100.244 32.5585 94.4632 28.0842 98.022 25.359C96.2552 24.1907 94.7429 21.5318 96.0811 19.3747C97.1115 17.7137 99.2814 17.0908 101.024 17.1207Z" fill="#191847"/>
<path fill-rule="evenodd" clip-rule="evenodd" d="M90.9467 121.052L141.511 205.587L179.42 277.054H187.586L124.069 121.052L90.9467 121.052Z" fill="#784931"/>
<path fill-rule="evenodd" clip-rule="evenodd" d="M174.428 273.756C173.667 275.788 173.286 277.308 173.286 278.317C173.286 279.544 173.49 281.335 173.899 283.689C175.323 283.689 188.116 283.689 212.28 283.689C213.277 280.392 212.702 278.612 210.553 278.349C208.404 278.086 206.619 277.849 205.197 277.637L187.358 269.684C187.015 269.531 186.613 269.685 186.46 270.029C186.457 270.034 186.455 270.04 186.452 270.046L185.306 272.828C183.316 273.756 181.7 274.22 180.456 274.22C179.445 274.22 178.05 273.812 176.269 272.996L176.269 272.996C175.586 272.683 174.778 272.983 174.465 273.666C174.452 273.695 174.439 273.725 174.428 273.756Z" fill="#E4E4E4"/>
<path fill-rule="evenodd" clip-rule="evenodd" d="M168.892 265.61L184.639 260.847C177.74 240.222 169.284 217.526 159.271 192.758C149.259 167.99 138.506 144.088 127.013 121.052H82.5386C95.3169 150.191 108.864 176.668 123.179 200.482C137.494 224.296 152.732 246.006 168.892 265.61Z" fill="#5C63AB"/>
<path fill-rule="evenodd" clip-rule="evenodd" d="M87.6236 121.052C82.8513 150.758 73.6467 188.711 72.778 189.882C72.1989 190.663 51.3508 197.649 10.2338 210.84L11.9976 218.041C61.0296 210.966 86.8652 205.477 89.5046 201.575C93.4636 195.72 113.232 149.471 120.888 121.052H87.6236Z" fill="#915B3C"/>
<path fill-rule="evenodd" clip-rule="evenodd" d="M24.6871 204.616L27.7939 216.213C64.4669 219.429 86.9373 217.105 95.2051 209.24C103.473 201.376 112.896 171.98 123.473 121.052H81.0648C74.3629 162.755 70.6161 184.482 69.8244 186.232C69.0327 187.983 53.987 194.111 24.6871 204.616Z" fill="#8991DC"/>
<path fill-rule="evenodd" clip-rule="evenodd" d="M12.2473 207.841C10.1137 207.445 8.55014 207.334 7.55652 207.509C6.34805 207.722 4.62008 208.234 2.37262 209.046C2.61982 210.448 4.8414 223.047 9.03738 246.843C12.4578 247.253 14.1109 246.377 13.9966 244.215C13.8824 242.053 13.8062 240.254 13.7681 238.818L18.5023 219.869C18.5933 219.504 18.3716 219.134 18.007 219.043C18.0008 219.042 17.9945 219.04 17.9882 219.039L15.0498 218.393C13.7903 216.595 13.0526 215.083 12.8366 213.859C12.6611 212.863 12.8207 211.418 13.3153 209.523L13.3153 209.523C13.5052 208.796 13.0695 208.052 12.3422 207.863C12.3108 207.854 12.2792 207.847 12.2473 207.841Z" fill="#E4E4E4"/>
<path fill-rule="evenodd" clip-rule="evenodd" d="M151.68 114.346L170.288 133.812C175.81 136.399 180.311 139.2 183.79 142.214C184.562 143.213 185.373 145.105 181.614 144.14C177.855 143.175 173.858 142.329 173.103 143.536C172.348 144.743 174.38 146.704 173.007 148.27C172.093 149.315 169.262 145.793 164.515 137.704L144.894 125.194L151.68 114.346ZM56.096 90.7501L67.5213 94.9681C49.0305 119.735 39.1597 132.813 37.9089 134.204C35.0946 137.332 36.1931 144.056 36.4397 147.545C31.3684 147.909 34.4635 140.851 28.0305 141.408C22.1588 141.917 16.7984 144.759 12.2998 139.068C11.7467 138.368 11.5682 136.427 13.928 135.819C19.8071 134.306 28.6423 131.127 30.2348 129.602C32.4065 127.522 41.0269 114.572 56.096 90.7501Z" fill="#915B3C"/>
<path fill-rule="evenodd" clip-rule="evenodd" d="M156.359 116.93C159.144 117.218 162.055 118.201 165.072 119.847C166.557 120.658 167.104 122.518 166.293 124.002C165.823 124.864 164.998 125.41 164.099 125.558C164.633 126.114 165.174 126.668 165.721 127.221L158.387 137.279C137.688 121.963 117.863 109.671 111.438 89.2776C109.281 82.4329 114.14 61.3315 115.195 53.5292L122.88 51.8536C129.23 74.2672 139.258 96.4644 156.359 116.93Z" fill="#69A1AC"/>
<path fill-rule="evenodd" clip-rule="evenodd" d="M77.3171 121.119C97.9775 127.148 114.561 130.072 127.067 129.891C128.616 129.868 129.69 123.395 129.306 121.508C123.327 92.1199 119.753 70.7479 123.119 51.661C120.95 52.3483 117.447 51.8908 112.609 50.2887C95.7954 67.6052 85.6816 89.0922 77.3171 121.119Z" fill="#191847"/>
<path fill-rule="evenodd" clip-rule="evenodd" d="M72.8296 123.678C72.2328 122.878 72.0377 121.803 72.4044 120.796L73.1026 118.877C73.5758 117.577 74.8378 116.793 76.1513 116.867C76.5535 115.901 76.9235 114.936 77.2585 113.973C80.088 105.837 79.2244 97.2186 80.7547 89.1742C68.3575 96.4682 55.8911 110.639 43.3558 131.688L31.3555 125.731C32.1548 124.022 32.9675 122.338 33.7936 120.68C32.4791 119.592 31.4428 115.487 32.7835 115.067C34.1683 114.634 35.594 114.408 37.0576 114.385C54.8263 81.477 78.3121 59.2597 107.515 47.7334L109.846 48.1444L115.136 49.0772C107.66 78.3564 127.231 148.608 106.712 202.04C86.0372 202.975 60.0759 184.146 30.4858 190.314C35.4433 168.214 60.6629 145.67 72.8296 123.678L72.8296 123.678Z" fill="#89C5CC"/>
<path fill-rule="evenodd" clip-rule="evenodd" d="M110.164 48.8915L104.832 58.9141L110.389 68.1123L102.993 73.2663L113.619 102.016L99.5903 72.7201L106.884 67.4943L101.946 59.3608L110.164 48.8915Z" fill="black" fill-opacity="0.1"/>
<path fill-rule="evenodd" clip-rule="evenodd" d="M107.382 111.281C105.902 111.02 104.913 109.608 105.174 108.128C105.435 106.647 106.847 105.659 108.328 105.92C109.808 106.181 110.797 107.593 110.536 109.073C110.274 110.554 108.863 111.542 107.382 111.281ZM108.015 127.285C106.535 127.024 105.546 125.613 105.807 124.132C106.068 122.652 107.48 121.663 108.961 121.924C110.441 122.185 111.43 123.597 111.168 125.078C110.907 126.558 109.496 127.546 108.015 127.285ZM105.968 142.817C104.487 142.556 103.499 141.144 103.76 139.664C104.021 138.183 105.432 137.195 106.913 137.456C108.393 137.717 109.382 139.129 109.121 140.609C108.86 142.09 107.448 143.078 105.968 142.817Z" fill="black" fill-opacity="0.4"/>
</svg>
