<svg width="183" height="262" viewBox="0 0 183 262" fill="none" xmlns="http://www.w3.org/2000/svg">
<path fill-rule="evenodd" clip-rule="evenodd" d="M117.117 12.9168C119.366 21.2049 122.297 39.8347 119.306 42.7571H100.383C100.382 42.7235 100.38 42.69 100.378 42.6566C93.3643 41.8805 87.9094 35.9341 87.9094 28.7137V15.0112C87.9094 7.26331 94.1903 0.982422 101.938 0.982422H103.243C110.279 0.982422 116.106 6.16232 117.117 12.9168Z" fill="#191847"/>
<path fill-rule="evenodd" clip-rule="evenodd" d="M95.2581 26.0976C92.2514 22.5684 90.2164 18.2433 90.5565 13.3969C91.5363 -0.566928 110.974 2.50493 114.755 9.55267C118.537 16.6004 118.087 34.4776 113.201 35.7372C111.252 36.2395 107.1 35.009 102.875 32.4622L105.527 51.2253H89.8669L95.2581 26.0976Z" fill="#D4A181"/>
<path fill-rule="evenodd" clip-rule="evenodd" d="M99.4913 23.7386C100.213 31.489 99.9237 40.3398 97.7734 42.4407H78.8509C77.7966 24.1227 87.9859 31.2162 87.9859 13.9693C88.6212 13.3486 89.2215 12.7343 89.8154 12.2045L89.7944 11.6973C93.0711 4.98926 97.228 1.63525 102.265 1.63525C109.821 1.63525 112.206 5.15113 114.237 8.13617C112.718 13.3464 106.826 14.119 101.59 17.3667C100.972 16.8653 100.185 16.5647 99.3282 16.5647C97.3462 16.5647 95.7394 18.1715 95.7394 20.1535C95.7394 22.1355 97.3462 23.7422 99.3282 23.7422C99.3828 23.7422 99.4372 23.741 99.4913 23.7386Z" fill="#191847"/>
<path fill-rule="evenodd" clip-rule="evenodd" d="M64.6855 169.387C80.3386 173.765 93.8436 175.954 105.2 175.954C116.557 175.954 127.106 172.583 136.847 165.84C121.529 161.347 108.914 159.1 99.0019 159.1C89.0899 159.1 77.6511 162.529 64.6855 169.387Z" fill="#1F28CF"/>
<path fill-rule="evenodd" clip-rule="evenodd" d="M118.751 182.263C118.6 182.036 118.473 181.789 118.372 181.522C116.279 175.989 82.7658 116.296 79.427 105.383H117.159C119.697 113.68 131.123 165.752 132.731 176.141C137.804 192.529 148.25 245.602 149.583 249.279C150.986 253.147 143.093 257.176 140.99 252.421C137.643 244.855 129.669 223.919 126.118 211.136C122.789 199.152 120.079 188.371 118.751 182.263Z" fill="#BA8B72"/>
<path fill-rule="evenodd" clip-rule="evenodd" d="M87.8814 189.551C72.5596 193.424 16.5155 200.424 12.6695 201.523C8.71321 202.652 5.24427 194.497 10.1345 192.731C17.9157 189.92 39.3564 183.426 52.3559 180.775C62.812 178.644 72.3532 176.904 78.759 175.886C78.2163 157.892 75.7356 114.709 77.3616 105.383H110.747C109.188 114.326 96.007 179.584 93.5572 186.116C92.7798 188.448 90.46 189.478 87.8814 189.551Z" fill="#D4A181"/>
<path fill-rule="evenodd" clip-rule="evenodd" d="M10.4896 190.56C8.44379 190.179 6.94449 190.073 5.99174 190.241C4.83298 190.445 3.17609 190.936 1.02107 191.714C1.2581 193.059 3.38831 205.14 7.4117 227.957C10.6914 228.35 12.2765 227.51 12.167 225.437C12.0575 223.364 11.9844 221.639 11.9478 220.262L16.4873 202.092C16.5746 201.742 16.362 201.388 16.0124 201.301C16.0064 201.299 16.0004 201.298 15.9944 201.297L13.1768 200.677C11.9691 198.953 11.2617 197.504 11.0547 196.329C10.8864 195.375 11.0394 193.989 11.5137 192.172L11.5137 192.172C11.6957 191.475 11.2779 190.762 10.5806 190.58C10.5505 190.572 10.5202 190.565 10.4896 190.56Z" fill="#E4E4E4"/>
<path fill-rule="evenodd" clip-rule="evenodd" d="M138.594 251.806C137.865 253.755 137.5 255.213 137.5 256.18C137.5 257.357 137.696 259.074 138.088 261.331C139.453 261.331 151.72 261.331 174.89 261.331C175.846 258.169 175.294 256.463 173.234 256.21C171.173 255.958 169.461 255.731 168.099 255.528L150.993 247.902C150.664 247.755 150.278 247.903 150.132 248.232C150.129 248.238 150.127 248.243 150.124 248.249L149.025 250.916C147.117 251.806 145.567 252.251 144.375 252.251C143.406 252.251 142.068 251.86 140.36 251.077L140.36 251.077C139.705 250.777 138.931 251.065 138.63 251.72C138.617 251.748 138.605 251.777 138.594 251.806Z" fill="#E4E4E4"/>
<path fill-rule="evenodd" clip-rule="evenodd" d="M77.4695 105.383C92.1813 101.174 106.101 101.174 119.229 105.383C123.797 126.223 134.895 134.494 136.847 166.444C114.662 177.467 87.257 158.582 64.4195 169.332C57.8945 154.296 67.0295 118.084 77.4695 105.383Z" fill="#2B44FF"/>
<path fill-rule="evenodd" clip-rule="evenodd" d="M140.762 79.4843L166.525 75.9702C171.678 73.1036 176.419 71.163 180.748 70.1484C181.966 70.1128 183.903 70.5556 181.017 72.9622C178.13 75.3687 175.201 78.0308 175.715 79.3151C176.23 80.5994 178.914 80.1216 179.359 82.0969C179.656 83.4139 175.299 83.6278 166.288 82.7389L145.384 91.0265L140.762 79.4843ZM59.8322 85.4474L74.1203 85.501C58.453 120.758 50.2839 139.218 49.6129 140.881C48.103 144.623 51.298 150.322 52.6644 153.384C48.2143 155.375 48.6885 148.001 43.0748 150.612C37.9509 152.996 34.0532 157.316 28.1333 153.663C27.4055 153.214 26.6079 151.523 28.5349 150.201C33.3359 146.91 40.2543 141.148 41.1891 139.252C42.4638 136.665 48.6782 118.731 59.8322 85.4474Z" fill="#D4A181"/>
<path fill-rule="evenodd" clip-rule="evenodd" d="M98.969 40.1311L110.156 40.8764C112.911 65.8027 127.918 81.5471 161.519 76.217L165.983 108.317C134.578 112.375 107.036 99.8021 101.392 65.7603C99.9305 56.948 98.7768 47.777 98.969 40.1311Z" fill="#AFB9C5"/>
<path fill-rule="evenodd" clip-rule="evenodd" d="M93.4497 36.8791L110.4 40.761C110.4 69.9141 119.686 88.5143 124.449 109.949H78.6725C78.0276 117.355 77.6316 124.968 77.4253 132.786H43.149C50.9162 91.4594 67.3101 59.4869 92.3307 36.8687H93.4408L93.4497 36.8791Z" fill="#C5CFD6"/>
<path fill-rule="evenodd" clip-rule="evenodd" d="M85.8948 68.3569C84.715 86.5234 85.4089 100.387 87.9762 109.948H78.6724C79.9498 95.2756 82.2038 81.412 85.8948 68.3569V68.3569Z" fill="black" fill-opacity="0.1"/>
</svg>
