<svg width="173" height="271" viewBox="0 0 173 271" fill="none" xmlns="http://www.w3.org/2000/svg">

<path fill-rule="evenodd" clip-rule="evenodd" d="M86.4022 25.1015C83.2665 21.4209 81.1443 16.9103 81.4989 11.856C82.5207 -2.70679 102.793 0.496843 106.736 7.84689C110.679 15.1969 110.211 33.841 105.114 35.1546C103.082 35.6785 98.7522 34.3952 94.3456 31.7391L97.1115 51.3071H80.7798L86.4022 25.1015Z" fill="#57331F"/>

<path fill-rule="evenodd" clip-rule="evenodd" d="M95.1623 13.4636C95.7874 22.172 97.4411 26.5261 100.123 26.5261C104.147 26.5261 107.561 23.9718 109.326 23.9718C110.613 23.9718 110.326 25.5823 109.473 26.7764C108.769 27.7616 105.341 28.7111 105.341 30.2385C105.341 31.7658 108.049 30.5842 108.049 31.49C108.049 32.9883 108.525 35.8055 105.925 35.8055C103.293 35.8055 95.7471 34.8464 94.4539 30.9403C93.6194 28.4195 93.0798 23.1957 92.8351 15.2692C92.6755 15.2502 92.513 15.2404 92.3482 15.2404C90.0933 15.2404 88.2653 17.0684 88.2653 19.3234C88.2653 20.4681 88.7364 21.5028 89.4953 22.2442C88.5505 23.5777 87.4918 24.9707 86.2785 26.4081C81.7206 23.6735 78.3384 15.6684 82.7945 7.97844C84.0262 4.21123 86.8145 2.19902 90.1076 1.26469C92.7752 0.148826 95.5444 0.0230119 97.882 0.691959C102.464 1.085 106.556 2.48229 107.716 3.3121C107.716 7.65037 106.875 8.93753 99.6953 8.82407C97.9311 9.75578 96.5749 11.3602 95.1623 13.4636Z" fill="#191847"/>

<path fill-rule="evenodd" clip-rule="evenodd" d="M79.4697 107.618L112.869 192.153L135.27 263.621H144.116L109.87 107.618L79.4697 107.618Z" fill="#3D2216"/>

<path fill-rule="evenodd" clip-rule="evenodd" d="M72.7443 107.618C72.3886 137.324 67.2018 177.319 66.3731 179.171C65.8207 180.405 46.7493 196.104 9.15881 226.267L15.2514 232.787C59.6046 206.926 82.8075 192.271 84.8599 188.821C87.9386 183.648 97.9617 136.038 106.009 107.618H72.7443Z" fill="#57331F"/>

<path fill-rule="evenodd" clip-rule="evenodd" d="M8.34379 224.092C6.29762 224.815 4.88809 225.501 4.11519 226.149C3.17517 226.938 1.93484 228.246 0.394209 230.072C1.30924 231.163 9.53282 240.963 25.0649 259.474C28.2319 258.118 29.2255 256.533 28.0456 254.718C26.8657 252.903 25.9002 251.383 25.1488 250.158L19.7743 231.38C19.6708 231.019 19.2941 230.81 18.9328 230.913C18.9266 230.915 18.9205 230.917 18.9143 230.919L16.0465 231.828C14.0568 230.901 12.6622 229.961 11.8627 229.008C11.2132 228.234 10.6288 226.903 10.1096 225.014L10.1096 225.014C9.91032 224.29 9.16125 223.864 8.43649 224.063C8.40526 224.071 8.37433 224.081 8.34379 224.092Z" fill="#E4E4E4"/>

<path fill-rule="evenodd" clip-rule="evenodd" d="M131.648 260.321C130.887 262.353 130.506 263.874 130.506 264.883C130.506 266.11 130.711 267.901 131.12 270.255C132.543 270.255 145.337 270.255 169.5 270.255C170.498 266.957 169.922 265.177 167.773 264.914C165.624 264.652 163.839 264.414 162.418 264.202L144.579 256.25C144.236 256.097 143.833 256.251 143.68 256.594C143.678 256.6 143.675 256.606 143.673 256.612L142.526 259.393C140.537 260.321 138.92 260.786 137.676 260.786C136.666 260.786 135.27 260.377 133.49 259.561L133.49 259.561C132.807 259.248 131.999 259.548 131.686 260.231C131.672 260.261 131.66 260.291 131.648 260.321Z" fill="#E4E4E4"/>

<path fill-rule="evenodd" clip-rule="evenodd" d="M101.926 256.259L143.983 251.695L112.814 107.618H75.1446L101.926 256.259Z" fill="#69A1AC"/>

<path fill-rule="evenodd" clip-rule="evenodd" d="M17.8582 215.748L45.4452 248.402C74.5021 216.667 91.4423 195.959 96.2659 186.28C101.089 176.601 105.426 150.38 109.274 107.618H66.8658C64.7634 145.238 63.3462 164.924 62.6143 166.674C61.8824 168.425 46.9637 184.783 17.8582 215.748Z" fill="#89C5CC"/>

<path fill-rule="evenodd" clip-rule="evenodd" d="M138.994 99.1792L158.271 117.984C163.88 120.377 168.476 123.019 172.058 125.91C172.864 126.882 173.741 128.744 169.95 127.91C166.16 127.077 162.135 126.371 161.423 127.604C160.71 128.837 162.81 130.726 161.493 132.339C160.615 133.414 157.663 129.993 152.637 122.076L132.592 110.257L138.994 99.1792ZM44.7307 82.1597L59.6316 82.2156C48.2826 118.985 42.2581 138.237 41.5583 139.971C39.9837 143.874 43.3158 149.817 44.7407 153.01C40.0998 155.087 40.5943 147.396 34.7398 150.12C29.3961 152.606 25.3312 157.111 19.1573 153.301C18.3983 152.833 17.5665 151.069 19.5762 149.691C24.5831 146.258 31.7983 140.25 32.7732 138.272C34.1026 135.575 38.0884 116.871 44.7307 82.1597Z" fill="#57331F"/>

<path fill-rule="evenodd" clip-rule="evenodd" d="M90.1363 39.8895L96.0206 38.8802C105.29 71.647 152.917 93.9822 155.84 106.231C156.913 110.723 153.68 112.994 155.35 114.362L147.701 119.961C146.406 118.45 143.642 121.214 137.87 119.281C132.098 117.347 90.1363 78.6882 90.1363 39.8895Z" fill="#191847"/>

<path fill-rule="evenodd" clip-rule="evenodd" d="M100.035 44.2459C99.3562 87.6267 124.434 98.6925 118.848 116.095C114.235 130.466 70.084 145.914 62.4439 131.828C59.3513 126.126 57.9481 119.229 57.7889 111.731C55.8363 117.492 54.292 122.451 53.156 126.608C51.1962 133.781 43.5986 134.921 43.5986 137.684L33.5888 134.921C34.2678 131.167 29.5489 129.339 30.8142 120.953C36.4832 83.3781 51.7149 56.1412 76.5092 39.2424L76.7657 35.5742C76.8706 34.0746 78.1713 32.9439 79.6709 33.0487L97.9994 34.3304C99.499 34.4353 100.63 35.736 100.525 37.2356L100.035 44.2459Z" fill="#2F3676"/>
</svg>
