<svg width="80" height="80" viewBox="0 0 80 80" fill="none" xmlns="http://www.w3.org/2000/svg">
<path d="M6.79396 42.7046L0.666626 48.8319L22.1123 58.0229L31.3076 79.4729L37.435 73.3456L34.3713 58.0229L48.7276 43.6666L64.371 77.0506L70.1733 71.2482L65.0166 27.3819L77.2713 15.1229C78.099 14.3234 78.7593 13.3671 79.2135 12.3097C79.6677 11.2524 79.9068 10.1151 79.9168 8.96439C79.9268 7.81363 79.7075 6.67241 79.2717 5.60731C78.836 4.54221 78.1925 3.57456 77.3787 2.76082C76.565 1.94708 75.5973 1.30356 74.5322 0.86779C73.4671 0.432022 72.3259 0.21274 71.1752 0.222739C70.0244 0.232739 68.8872 0.471821 67.8298 0.926033C66.7724 1.38024 65.8161 2.04049 65.0166 2.86824L52.437 15.4479L8.57063 10.2869L3.08896 15.7729L36.213 31.6762L22.1166 45.7726L6.79396 42.7046Z" fill="#C1DEE2"/>
</svg>
