<svg width="54" height="81" viewBox="0 0 54 81" fill="none" xmlns="http://www.w3.org/2000/svg">
<path d="M9.92306 0C7.4443 0 5.06707 0.984681 3.31433 2.73743C1.56159 4.49017 0.576904 6.8674 0.576904 9.34615V71.6538C0.576904 74.1326 1.56159 76.5098 3.31433 78.2626C5.06707 80.0153 7.4443 81 9.92306 81H44.1923C46.671 81 49.0483 80.0153 50.801 78.2626C52.5538 76.5098 53.5384 74.1326 53.5384 71.6538V9.34615C53.5384 6.8674 52.5538 4.49017 50.801 2.73743C49.0483 0.984681 46.671 0 44.1923 0L9.92306 0ZM23.9423 3.11538H30.1731C30.5862 3.11538 30.9824 3.2795 31.2745 3.57162C31.5666 3.86375 31.7307 4.25995 31.7307 4.67308C31.7307 5.0862 31.5666 5.48241 31.2745 5.77453C30.9824 6.06666 30.5862 6.23077 30.1731 6.23077H23.9423C23.5292 6.23077 23.133 6.06666 22.8408 5.77453C22.5487 5.48241 22.3846 5.0862 22.3846 4.67308C22.3846 4.25995 22.5487 3.86375 22.8408 3.57162C23.133 3.2795 23.5292 3.11538 23.9423 3.11538ZM8.36536 9.34615H45.75C46.1631 9.34615 46.5593 9.51027 46.8514 9.80239C47.1436 10.0945 47.3077 10.4907 47.3077 10.9038V63.8654C47.3077 64.2785 47.1436 64.6747 46.8514 64.9668C46.5593 65.259 46.1631 65.4231 45.75 65.4231H8.36536C7.95224 65.4231 7.55603 65.259 7.26391 64.9668C6.97179 64.6747 6.80767 64.2785 6.80767 63.8654V10.9038C6.80767 10.4907 6.97179 10.0945 7.26391 9.80239C7.55603 9.51027 7.95224 9.34615 8.36536 9.34615ZM31.5376 24.9231C30.2509 25.0072 28.8116 25.8016 27.9331 26.8702C27.1356 27.836 26.4097 29.2659 26.6682 30.6678C28.0733 30.7052 29.5282 29.9015 30.3693 28.8173C31.1544 27.8079 31.7526 26.3811 31.5345 24.9231H31.5376ZM22.8706 30.4716C21.0325 30.4716 19.048 31.6741 17.8081 33.587C16.0572 36.2724 16.3439 41.2477 19.1726 45.5625C20.1882 47.1015 21.5902 48.8555 23.3597 48.8742C24.9267 48.8897 25.3131 47.9115 27.4471 47.899C29.5811 47.8866 29.9612 48.8897 31.5376 48.8742C33.3009 48.8555 34.8087 47.0049 35.8181 45.4659C36.5409 44.36 36.8151 43.793 37.3758 42.5437C33.2791 40.9953 32.547 35.1228 36.597 32.9047C35.3633 31.3657 33.6592 30.4747 32.0236 30.4747C29.8584 30.4747 28.9518 31.5433 27.4471 31.5433C25.8956 31.5433 24.7461 30.4716 22.8706 30.4716ZM27.0577 69.2238C29.2571 69.2238 31.0485 71.0152 31.0485 73.2147C31.0485 75.4141 29.2571 77.2055 27.0577 77.2055C25.9997 77.2038 24.9856 76.7828 24.2376 76.0348C23.4895 75.2867 23.0685 74.2726 23.0669 73.2147C23.0669 71.0152 24.8582 69.2238 27.0577 69.2238Z" fill="#C1DEE2"/>
</svg>
