<svg width="436" height="588" viewBox="0 0 436 588" fill="none" xmlns="http://www.w3.org/2000/svg">
<g clip-path="url(#clip0_24_402)">
<path fill-rule="evenodd" clip-rule="evenodd" d="M13.2366 20.9992C6.8579 17.8282 -1.64562 21.5058 1.90165 29.8885C5.70143 38.8651 19.7502 38.976 27.6843 38.7981C26.8902 38.7564 24.3331 30.5247 23.4576 29.2808C20.8758 25.6114 17.1581 22.9521 13.2366 20.9992ZM86.7311 181.94C88.3404 183.32 86.8621 182.07 86.7311 181.94V181.94ZM7.09181 61.6006C3.35903 64.4612 3.18098 69.5119 6.23019 72.9305C9.8611 77.0004 16.491 76.8522 21.44 76.4557C23.6787 76.276 35.6323 75.3165 32.7989 73.3554C33.0169 73.4379 33.472 73.6382 33.9591 73.9105C34.2212 74.8708 34.4965 75.8276 34.7834 76.7802C34.7131 76.8215 34.6532 76.8657 34.578 76.9066C34.6594 76.8709 34.7165 76.8322 34.7882 76.796C37.6628 86.3174 41.7545 95.3833 47.1123 103.865C45.1078 103.074 43.0315 102.474 40.9257 102.208C34.6896 101.417 21.571 106.275 28.5465 114.599C35.235 122.579 45.6479 114.018 53.2387 112.838C60.6016 123.14 68.7195 133.012 77.2271 142.555C76.7058 142.719 76.2483 143.06 75.9861 143.591C72.5731 141.855 69.0166 139.372 65.8579 138.699C61.2999 137.731 51.9535 137.143 48.5085 141.233C44.2713 146.263 48.8133 150.348 53.8193 151.312C61.0782 152.711 70.5803 149.156 77.5649 146.753C78.3639 146.895 79.2361 146.661 79.7571 146.02C79.9115 145.969 80.0658 145.92 80.2159 145.871C88.8314 155.367 97.7763 164.55 106.667 173.532C106.572 173.527 106.478 173.521 106.379 173.516C104.06 171.991 101.572 170.74 98.8759 170.085C92.6384 168.56 85.2995 168.553 80.2377 173.078C75.1956 177.583 73.4095 185.462 78.6257 190.521C89.0668 200.647 104.45 177.558 109.717 176.595C118.752 185.626 128.305 194.064 138.008 202.332C136.907 201.996 135.776 201.749 134.608 201.638C125.093 200.725 102.759 212.419 114.437 223.925C124.613 233.952 136.391 214.653 144.592 207.904C153.735 215.61 162.929 223.264 171.865 231.215C166.991 229.918 162.281 229.727 157.057 231.31C151.651 232.95 142.928 237.042 146.345 244.359C149.821 251.8 160.296 248.414 165.752 246.051C168.728 244.763 174.694 240.414 179.932 238.582C194.19 252.078 206.541 266.942 215.891 284.453C221.728 295.386 226.158 307.067 229.276 319.072C231.266 326.735 235.187 339.605 234.402 349.578C238.144 329.615 231.378 305.638 224.09 287.794C217.389 271.386 207.359 256.981 195.612 244.015C198.56 235.127 223.373 222.306 208.539 214.048C200.663 209.681 192.595 216.927 190.873 224.6C189.69 229.873 191.492 236.499 193.404 241.617C189.709 237.664 185.867 233.839 181.909 230.141C176.438 225.029 170.836 220.066 165.181 215.166C174.5 206.389 183.32 181.297 170.825 177.193C152.373 171.151 161.258 205.377 162.545 211.791C162.91 211.813 163.195 211.702 163.405 211.465C163.301 212.052 163.181 212.681 163.035 213.314C152.21 203.983 141.226 194.836 130.603 185.283C131.56 184.574 133.082 181.864 134.277 180.421C136.976 177.17 139.558 173.774 141.445 169.97C144.426 163.959 147.301 154.372 139.399 150.836C130.806 146.984 126.722 157.828 126.662 164.297C126.622 168.771 127.837 173.021 128.47 177.406C128.668 178.774 127.906 184.939 129.764 182.286C129.677 183.264 129.664 183.972 129.708 184.475C127.8 182.751 125.908 181.008 124.028 179.253C124.115 179.032 124.179 178.79 124.194 178.51C124.295 176.581 122.359 175.839 121.001 176.403C118.52 174.04 116.063 171.646 113.65 169.205C108.535 164.033 103.346 158.713 98.1935 153.28C99.3114 152.317 98.8668 150.984 99.9124 149.962C100.956 148.942 103.012 148.378 104.24 147.431C107.327 145.046 109.887 141.573 111.739 138.155C114.795 132.506 118.746 120.657 109.816 117.965C100.612 115.186 95.9397 126.592 95.3479 133.723C95.2327 135.104 96.2645 147.552 97.0544 152.072C87.5196 141.976 78.1417 131.5 69.6454 120.842C72.2215 120.818 79.5251 115.527 81.0016 114.083C84.6042 110.561 90.3312 102.78 84.0151 98.662C78.3992 95.0097 71.4769 100.3 69.0754 105.441C68.6807 106.288 67.2888 114.167 67.1802 117.702C63.6637 113.183 60.3092 108.637 57.1883 104.076C55.107 101.044 53.1621 97.9312 51.3423 94.7527C51.7804 94.5038 52.1925 94.0697 52.5818 93.53C61.9481 91.9363 73.8896 77.2856 62.8879 72.1882C57.6499 69.7644 51.9693 74.7677 49.4034 78.864C48.8777 79.702 48.0262 83.9154 47.3333 87.2387C42.098 76.7089 38.0973 65.5611 35.0523 54.1313C35.8677 53.9283 36.5582 53.3039 36.6493 52.2299C41.1967 49.6309 44.7876 47.4668 47.962 42.469C49.9342 39.3648 53.4858 32.2725 47.6911 30.5495C40.1502 28.3077 35.4133 39.8546 34.7964 45.5421C34.7245 46.2023 34.7272 48.1224 34.752 49.8819C34.4902 49.8461 34.2256 49.8502 33.966 49.8962C32.2341 42.8187 30.8516 35.6501 29.7522 28.4694C33.8681 27.1414 34.5799 5.47117 31.8394 2.38558C25.7139 -4.52342 21.3923 5.45695 21.7193 10.7318C22.1057 16.9513 24.9169 22.609 28.2644 27.6301C28.6236 28.1619 28.5211 28.1361 28.6142 27.3954C28.6656 27.7615 28.7878 28.0317 28.9691 28.2274C28.7963 31.5013 28.4596 34.8531 28.6213 37.7501C29.0848 46.0464 30.0488 54.3911 31.4484 62.5805C31.7889 64.5723 32.1788 66.5479 32.6159 68.5063C29.3077 65.6808 24.8473 63.1704 23.102 62.3854C18.5722 60.3499 11.5911 58.1522 7.09181 61.6006ZM234.933 349.606C234.723 352.499 234.202 355.148 233.23 357.332C233.959 354.845 234.519 352.26 234.933 349.606Z" fill="#F2F2F2"/>
<g opacity="0.7">
<path opacity="0.7" fill-rule="evenodd" clip-rule="evenodd" d="M137.316 216.949C155.032 216.027 176.941 226.394 178.831 245.699C180.204 259.726 179.779 273.713 181.904 287.719C183.603 298.913 187.196 309.658 192.097 319.854C196.809 329.659 206.585 338.006 209.127 348.48C210.748 355.155 209.841 364.543 207.606 371.072C204.888 379.009 206.333 378.382 211.748 385.042C222.359 398.094 231.914 411.479 238.671 427.068C248.403 449.521 254.784 475.766 251.172 500.344C250.712 503.465 250.168 514.666 245.881 515.449C241.093 516.324 243.331 509.918 243.587 507.849C245.216 494.646 246.664 483.105 244.699 469.696C237.116 417.959 200.094 383.872 175.987 339.962C174.662 337.697 171.864 332.305 169.919 328.748C166.848 323.132 163.761 312.445 159.604 308.281C151.774 300.435 158.972 316.207 160.498 319.218C162.427 323.027 164.549 327.075 166.525 330.412C175.57 345.882 185.665 362.768 195.006 378.715C154.607 387.942 126.155 339.252 115.314 307.241C106.382 280.867 95.6945 219.205 137.316 216.949Z" fill="#69A1AC"/>
<path opacity="0.7" fill-rule="evenodd" clip-rule="evenodd" d="M374.759 167.972C345.144 170.327 326.132 189.918 317.281 217.32C312.511 232.087 311.965 247.257 309.314 262.432C305.326 285.264 296.747 302.566 279.979 318.832C274.786 323.87 270.959 329.042 268.238 334.576C262.837 340.101 258.136 346.353 254.682 353.997C250.27 363.759 249.022 375.472 254.116 385.204C255.485 387.82 258.902 393.073 262.443 395.459C249.185 423.766 241.896 454.769 242.717 485.732C243.214 504.422 244.124 523.121 245.186 541.789C245.472 546.801 247.1 555.078 249.546 546.672C251.784 538.983 248.977 526.912 248.717 518.879C247.454 479.748 246.373 444.168 262.441 407.607C264.126 403.775 265.913 399.974 267.773 396.204C267.882 396.14 267.984 396.064 268.086 395.989C268.157 396.044 268.222 396.103 268.293 396.157C268.412 395.944 268.574 395.691 268.764 395.409C269.298 394.857 269.764 394.159 270.207 393.38C271.632 391.4 273.245 389.074 273.254 387.801C273.254 387.791 273.248 387.775 273.248 387.766C283.195 371.487 294.588 356.106 306.226 341.026C306.138 341.136 318.849 323.786 316.883 333.381C315.936 338.005 306.587 346.809 302.811 351.707C294.458 362.603 284.65 376.408 276.499 389.758C275.402 390.39 273.853 393.492 272.732 395.803C272.113 396.974 271.536 398.154 270.969 399.182C299.849 408.749 322.316 389.48 337.635 367.067C337.654 367.041 337.67 367.014 337.687 366.987C342.349 360.794 347.125 354.645 353.091 349.75C363.044 341.581 373.704 340.14 385.44 336.12C417.444 325.157 431.051 283.576 435.372 252.723C440.248 217.915 416.398 164.539 374.759 167.972Z" fill="#89C5CC"/>
<path opacity="0.7" fill-rule="evenodd" clip-rule="evenodd" d="M316.259 70.4955C285.864 102.21 271.179 146.198 259.552 187.551C246.565 233.738 237.987 280.638 237.658 328.658C237.442 360.208 236.586 391.955 238.423 423.468C239.075 434.66 240.188 445.871 241.957 456.943C242.103 457.853 246.062 482.573 249.849 476.813C252.004 473.537 245.792 451.169 245.322 447.443C242.681 426.459 242.068 405.32 242.197 384.185C242.408 349.385 241.385 314.764 244.903 280.093C245.428 274.916 245.843 269.479 247.069 264.415C248.371 259.031 246.713 261.381 250.955 259.25C255.076 257.178 260.17 257.474 264.446 254.874C281.409 244.562 290.087 218.074 296.841 200.694C304.565 180.82 309.26 159.626 313.01 138.711C315.763 123.344 317.732 108.071 318.846 92.506C319.197 87.6005 319.218 82.4707 320.18 77.6472C320.439 76.3461 321.739 74.0445 321.691 72.8923C321.591 70.4537 320.123 69.0195 320.003 66.9704C318.731 68.1183 317.481 69.2942 316.259 70.4955Z" fill="#89C5CC"/>
<path opacity="0.7" fill-rule="evenodd" clip-rule="evenodd" d="M150.524 493.035C150.524 545.483 192.934 588 245.25 588C297.566 588 339.976 545.483 339.976 493.035" fill="#89C5CC"/>
<path opacity="0.7" fill-rule="evenodd" clip-rule="evenodd" d="M252.851 493.338H247.845C248.193 487.042 248.651 480.757 249.701 474.532C253.716 450.722 266.271 415.751 293.807 411.887C294.823 411.743 298.56 411.719 303.086 411.985C305.232 410.783 307.635 410.056 310.167 409.889C333.611 408.156 359.792 427.118 371.101 446.85C380.217 462.759 378.682 483.65 373.051 500.552C369.28 511.867 361.051 528.001 347.327 528.158C330.157 528.355 329.329 507.08 328.997 494.643C328.556 478.108 326.472 463.704 313.475 452.434C310.446 449.808 307.136 447.498 304.076 444.909C299.285 440.857 293.991 436.707 293.374 430.003C292.522 420.753 297.73 419.088 305.682 420.807C307.037 421.099 320.692 427.242 318.67 422.387C318.053 420.904 315.799 419.728 312.953 418.848C305.59 418.045 296.809 417.114 294.283 417.67C267.039 423.662 256.432 461.496 253.615 485.533C253.311 488.128 253.065 490.731 252.851 493.338Z" fill="#69A1AC"/>
</g>
</g>
<defs>
<clipPath id="clip0_24_402">
<rect width="436" height="588" fill="white"/>
</clipPath>
</defs>
</svg>
