<svg width="96" height="67" viewBox="0 0 96 67" fill="none" xmlns="http://www.w3.org/2000/svg">
<path fill-rule="evenodd" clip-rule="evenodd" d="M0 49H6V61H90V49H96V67H0V49Z" fill="#C1DEE2"/>
<path d="M41.04 49.0001H35.76V43.8401H35.628C33.33 47.8001 29.946 49.7741 25.476 49.7741C22.188 49.7741 19.614 48.9041 17.742 47.1641C15.894 45.4241 14.97 43.1141 14.97 40.2341C14.97 34.0661 18.6 30.4781 25.866 29.4701L35.76 28.0901C35.76 22.4801 33.492 19.6721 28.956 19.6721C24.984 19.6721 21.396 21.0281 18.192 23.7341V18.3221C21.438 16.2581 25.176 15.2261 29.412 15.2261C37.164 15.2261 41.04 19.3301 41.04 27.5381V49.0001ZM35.76 32.3081L27.798 33.4001C25.35 33.7481 23.502 34.3601 22.254 35.2421C21.006 36.1001 20.388 37.6361 20.388 39.8501C20.388 41.4581 20.958 42.7781 22.092 43.8101C23.256 44.8181 24.792 45.3281 26.7 45.3281C27.9136 45.3628 29.1204 45.1358 30.2386 44.6627C31.3567 44.1896 32.3599 43.4813 33.18 42.5861C34.896 40.7381 35.76 38.4101 35.76 35.5961V32.3081Z" fill="#C1DEE2"/>
<path d="M56.088 44.2301H55.956V49.0001H50.676V0.14209H55.956V21.8021H56.082C58.686 17.4221 62.49 15.2261 67.494 15.2261C71.724 15.2261 75.036 16.7081 77.418 19.6721C79.824 22.6121 81.03 26.5721 81.03 31.5341C81.03 37.0541 79.686 41.4821 76.998 44.8121C74.316 48.1181 70.638 49.7741 65.976 49.7741C61.62 49.7741 58.32 47.9261 56.082 44.2301H56.088ZM55.956 30.9221V35.5301C55.956 38.2601 56.838 40.5761 58.596 42.4901C60.384 44.3801 62.64 45.3281 65.364 45.3281C68.568 45.3281 71.07 44.1041 72.876 41.6501C74.7 39.2021 75.612 35.8001 75.612 31.4381C75.612 27.7601 74.766 24.8861 73.068 22.7981C71.37 20.7161 69.072 19.6781 66.168 19.6781C63.102 19.6781 60.63 20.7461 58.758 22.8941C56.892 25.0241 55.956 27.6941 55.956 30.9221Z" fill="#C1DEE2"/>
</svg>
