<svg width="55" height="77" viewBox="0 0 55 77" fill="none" xmlns="http://www.w3.org/2000/svg">
<path fill-rule="evenodd" clip-rule="evenodd" d="M32.6036 11.2084C38.9407 11.2084 43.8751 16.2055 43.8751 22.1251C43.8751 28.0446 38.9407 33.0418 32.6036 33.0418H21.4468C19.9991 33.0418 18.6108 33.6168 17.5871 34.6405C16.5635 35.6641 15.9884 37.0524 15.9884 38.5001C15.9884 39.9477 16.5635 41.3361 17.5871 42.3597C18.6108 43.3834 19.9991 43.9584 21.4468 43.9584H32.6009C38.9407 43.9584 43.8751 48.9555 43.8751 54.8751C43.8751 60.7947 38.9407 65.7918 32.6036 65.7918H21.4468C16.4715 65.7918 12.3204 62.6887 10.803 58.4776C10.3108 57.1157 9.29778 56.0052 7.98676 55.3902C6.67573 54.7753 5.17412 54.7063 3.81226 55.1985C2.45039 55.6907 1.33982 56.7037 0.724875 58.0148C0.109926 59.3258 0.0409652 60.8274 0.533163 62.1893C3.6062 70.6988 11.851 76.7084 21.4468 76.7084H32.6009C44.7484 76.7084 54.7917 67.0444 54.7917 54.8751C54.7926 51.7656 54.1217 48.6926 52.8249 45.8663C51.5282 43.0401 49.6361 40.5274 47.2783 38.5001C49.6361 36.4728 51.5282 33.9601 52.8249 31.1339C54.1217 28.3076 54.7926 25.2346 54.7917 22.1251C54.7917 9.95573 44.7457 0.291748 32.6036 0.291748H21.4468C11.851 0.291748 3.6062 6.30137 0.533163 14.8109C0.289451 15.4851 0.180909 16.2006 0.213734 16.9167C0.24656 17.6328 0.420109 18.3354 0.724474 18.9845C1.02884 19.6335 1.45806 20.2162 1.98763 20.6993C2.5172 21.1825 3.13674 21.5566 3.81089 21.8003C5.1724 22.2925 6.67366 22.2237 7.98443 21.609C9.29519 20.9943 10.3081 19.8841 10.8003 18.5226C12.3204 14.3115 16.4715 11.2084 21.4468 11.2084H32.6009H32.6036Z" fill="#C1DEE2"/>
</svg>
