<svg width="75" height="75" viewBox="0 0 75 75" fill="none" xmlns="http://www.w3.org/2000/svg">
<path d="M30.974 12.7501C30.974 14.3752 30.6543 15.9844 30.0331 17.4858C29.412 18.9872 28.5015 20.3514 27.3538 21.5006C26.2061 22.6497 24.8435 23.5612 23.3439 24.1831C21.8444 24.805 20.2371 25.1251 18.614 25.1251C16.9908 25.1251 15.3836 24.805 13.884 24.1831C12.3844 23.5612 11.0219 22.6497 9.87414 21.5006C8.7264 20.3514 7.81597 18.9872 7.19483 17.4858C6.57368 15.9844 6.25397 14.3752 6.25397 12.7501C6.25398 9.46806 7.55619 6.32043 9.87414 3.99966C12.1921 1.6789 15.3359 0.37511 18.614 0.37511C21.8921 0.37511 25.0359 1.6789 27.3538 3.99966C29.6718 6.32043 30.974 9.46806 30.974 12.7501ZM7.28398 29.2501C5.37176 29.2501 3.53787 30.0107 2.18574 31.3644C0.833598 32.7182 0.0739746 34.5543 0.0739746 36.4689V56.0626C0.0739746 58.5003 0.553526 60.9141 1.48525 63.1662C2.41697 65.4183 3.78262 67.4646 5.50421 69.1883C7.22581 70.912 9.26965 72.2793 11.519 73.2121C13.7684 74.145 16.1793 74.6251 18.614 74.6251C21.0487 74.6251 23.4596 74.145 25.7089 73.2121C27.9583 72.2793 30.0021 70.912 31.7237 69.1883C33.4453 67.4646 34.811 65.4183 35.7427 63.1662C36.6744 60.9141 37.154 58.5003 37.154 56.0626V36.4689C37.154 34.5543 36.3944 32.7182 35.0422 31.3644C33.6901 30.0107 31.8562 29.2501 29.944 29.2501H7.28398ZM32.4572 74.0229C35.2029 71.9055 37.4259 69.1848 38.9546 66.0707C40.4833 62.9567 41.2769 59.5325 41.274 56.0626V36.4689C41.274 33.7257 40.3017 31.2136 38.6825 29.2501H48.484C52.4639 29.2501 55.694 32.4841 55.694 36.4689V56.0626C55.6945 58.9012 55.0447 61.7022 53.7947 64.25C52.5447 66.7979 50.7277 69.0247 48.4834 70.7594C46.2391 72.494 43.6274 73.6902 40.8491 74.256C38.0708 74.8217 35.1999 74.742 32.4572 74.0229ZM35.094 12.7501C35.094 16.8751 33.5819 20.6412 31.0852 23.5329C32.966 24.5924 35.091 25.1405 37.249 25.1226C39.407 25.1047 41.5227 24.5214 43.3856 23.4307C45.2485 22.3401 46.7938 20.7801 47.8676 18.9059C48.9415 17.0317 49.5065 14.9087 49.5065 12.748C49.5065 10.5874 48.9415 8.46436 47.8676 6.59019C46.7938 4.71602 45.2485 3.15601 43.3856 2.06535C41.5227 0.974688 39.407 0.391387 37.249 0.373472C35.091 0.355557 32.966 0.903652 31.0852 1.96323C33.5819 4.85898 35.094 8.62924 35.094 12.7501ZM50.9972 74.0229C53.7429 71.9055 55.9659 69.1848 57.4946 66.0707C59.0233 62.9567 59.8169 59.5325 59.814 56.0626V36.4689C59.814 33.7257 58.8417 31.2136 57.2225 29.2501H67.024C71.0039 29.2501 74.234 32.4841 74.234 36.4689V56.0626C74.2345 58.9012 73.5847 61.7022 72.3347 64.25C71.0847 66.7979 69.2677 69.0247 67.0234 70.7594C64.7791 72.494 62.1674 73.6902 59.3891 74.256C56.6108 74.8217 53.7399 74.742 50.9972 74.0229ZM53.634 12.7501C53.634 16.8751 52.1219 20.6412 49.6252 23.5329C51.506 24.5924 53.631 25.1405 55.789 25.1226C57.947 25.1047 60.0626 24.5214 61.9256 23.4307C63.7885 22.3401 65.3338 20.7801 66.4076 18.9059C67.4815 17.0317 68.0465 14.9087 68.0465 12.748C68.0465 10.5874 67.4815 8.46436 66.4076 6.59019C65.3338 4.71602 63.7885 3.15601 61.9256 2.06535C60.0626 0.974688 57.947 0.391387 55.789 0.373472C53.631 0.355557 51.506 0.903652 49.6252 1.96323C52.1219 4.85898 53.634 8.62924 53.634 12.7501Z" fill="#C1DEE2"/>
</svg>
