<svg width="71" height="67" viewBox="0 0 71 67" fill="none" xmlns="http://www.w3.org/2000/svg">
<path d="M63.1668 34.9583H49.3334C49.3334 38.7625 46.2209 41.875 42.4167 41.875H28.5834C24.7792 41.875 21.6667 38.7625 21.6667 34.9583H7.83342L0.916748 52.25V59.1667C0.916748 62.9708 4.02925 66.0833 7.83342 66.0833H63.1668C66.9709 66.0833 70.0834 62.9708 70.0834 59.1667V52.25L63.1668 34.9583ZM14.7501 59.1667C11.6722 59.1667 10.1159 55.4317 12.2947 53.2529C14.4734 51.0742 18.2084 52.6304 18.2084 55.7083C18.2084 57.6104 16.6522 59.1667 14.7501 59.1667ZM28.5834 59.1667C25.5055 59.1667 23.9492 55.4317 26.128 53.2529C28.3067 51.0742 32.0417 52.6304 32.0417 55.7083C32.0417 57.6104 30.4855 59.1667 28.5834 59.1667ZM42.4167 59.1667C39.3388 59.1667 37.7826 55.4317 39.9613 53.2529C42.1401 51.0742 45.8751 52.6304 45.8751 55.7083C45.8751 57.6104 44.3188 59.1667 42.4167 59.1667ZM56.2501 59.1667C53.1722 59.1667 51.6159 55.4317 53.7947 53.2529C55.9734 51.0742 59.7084 52.6304 59.7084 55.7083C59.7084 57.6104 58.1522 59.1667 56.2501 59.1667ZM56.2501 24.5833V0.375H14.7501V24.5833H4.37508V31.5H66.6251V24.5833H56.2501ZM21.6667 7.29167H49.3334V10.75H21.6667V7.29167ZM21.6667 14.2083H42.4167V17.6667H21.6667" fill="#C1DEE2"/>
</svg>
