<svg width="88" height="88" viewBox="0 0 88 88" fill="none" xmlns="http://www.w3.org/2000/svg">
<path d="M44 2.75C21.2183 2.75 2.75 21.2183 2.75 44C2.75 66.7817 21.2183 85.25 44 85.25C66.7817 85.25 85.25 66.7817 85.25 44C85.25 21.2183 66.7817 2.75 44 2.75ZM69.279 69.279C63.0108 75.5285 54.6404 79.2205 45.7988 79.6356C36.9572 80.0506 28.2777 77.159 21.4516 71.5242C14.6255 65.8894 10.1418 57.9151 8.87405 49.1549C7.60634 40.3948 9.64547 31.4765 14.5941 24.1377C19.5427 16.799 27.0464 11.5654 35.643 9.45695C44.2395 7.34845 53.3132 8.51602 61.0959 12.7322C68.8786 16.9483 74.8129 23.9109 77.7424 32.2635C80.672 40.616 80.3869 49.76 76.9428 57.9138C75.1478 62.1625 72.545 66.0223 69.279 69.279Z" fill="#C1DEE2"/>
<path d="M26.125 34.375H33V41.25H26.125V34.375Z" fill="#C1DEE2"/>
<path d="M55 34.375H61.875V41.25H55V34.375Z" fill="#C1DEE2"/>
<path d="M44 66C48.7407 66 53.2873 64.1167 56.6395 60.7645C59.9917 57.4123 61.875 52.8657 61.875 48.125H26.125C26.125 52.8657 28.0083 57.4123 31.3605 60.7645C34.7127 64.1167 39.2593 66 44 66Z" fill="#C1DEE2"/>
</svg>
