<svg width="96" height="96" viewBox="0 0 96 96" fill="none" xmlns="http://www.w3.org/2000/svg">
<path d="M48 90C39.6932 90 31.5729 87.5368 24.6661 82.9217C17.7592 78.3067 12.376 71.7472 9.19708 64.0727C6.0182 56.3982 5.18646 47.9534 6.80704 39.8062C8.42762 31.659 12.4277 24.1753 18.3015 18.3015C24.1753 12.4277 31.659 8.42762 39.8062 6.80704C47.9534 5.18646 56.3982 6.0182 64.0727 9.19708C71.7472 12.376 78.3067 17.7592 82.9217 24.6661C87.5368 31.5729 90 39.6932 90 48C90 59.1391 85.575 69.822 77.6985 77.6985C69.822 85.575 59.1391 90 48 90ZM48 12C40.8799 12 33.9197 14.1114 27.9995 18.0671C22.0793 22.0228 17.4651 27.6453 14.7404 34.2234C12.0156 40.8016 11.3027 48.04 12.6917 55.0233C14.0808 62.0066 17.5095 68.4212 22.5442 73.4559C27.5789 78.4905 33.9935 81.9192 40.9768 83.3083C47.9601 84.6973 55.1985 83.9844 61.7766 81.2597C68.3548 78.5349 73.9772 73.9207 77.9329 68.0005C81.8886 62.0804 84 55.1201 84 48C84 38.4522 80.2072 29.2955 73.4559 22.5442C66.7046 15.7929 57.5478 12 48 12Z" fill="#C1DEE2"/>
<path d="M61.77 66L45 49.23V21H51V46.74L66 61.77L61.77 66Z" fill="#C1DEE2"/>
</svg>
