<svg width="69" height="69" viewBox="0 0 69 69" fill="none" xmlns="http://www.w3.org/2000/svg">
<path d="M4.3125 -4.58308e-05C1.92715 -4.58308e-05 0 1.9271 0 4.31245V66.8437C0 68.0296 0.970312 69 2.15625 69H6.46875C7.65469 69 8.625 68.0296 8.625 66.8437V4.31245C8.625 1.9271 6.69785 -4.58308e-05 4.3125 -4.58308e-05ZM40.4162 40.9148C32.7076 38.8798 25.3629 37.0336 12.9375 42.4107V51.75C37.9635 39.3246 42.815 58.933 66.5068 48.6369C68.0432 47.963 69 46.4132 69 44.7556V39.9041C63.1242 42.2355 58.1918 43.1519 53.8928 43.1519C48.8525 43.1384 44.6074 42.0199 40.4162 40.9148ZM40.4162 27.9773C32.7076 25.9423 25.3629 24.096 12.9375 29.4732V37.7613C25.7133 32.6941 33.7723 34.7021 41.5213 36.7371C49.2299 38.772 56.5746 40.6183 69 35.2412V26.9531C63.1242 29.2845 58.1918 30.2009 53.8928 30.2009C48.8525 30.2009 44.6074 29.0824 40.4162 27.9773ZM41.6965 11.0103C48.6773 13.1126 54.8227 14.9185 69 8.30152V4.15074C69 0.768118 65.3883 -0.983835 62.3426 0.56597C39.2572 12.331 41.1574 -8.38247 12.9375 4.36636V24.8373C25.7133 19.7835 33.7723 21.7781 41.5213 23.813C49.2299 25.8345 56.5746 27.6808 69 22.3171V13.0318C61.7766 16.1988 56.4264 17.2634 52.0061 17.2634C47.5857 17.2634 44.0549 16.2123 40.4566 15.1207C39.9176 14.9589 39.365 14.7972 38.826 14.649V10.1748C39.7963 10.4443 40.7531 10.7273 41.6965 11.0103ZM21.5625 17.2634C20.3766 17.2634 19.4062 16.3066 19.4062 15.1072C19.4062 13.9212 20.3766 12.9509 21.5625 12.9509C22.7484 12.9509 23.7188 13.9078 23.7188 15.1072C23.7188 16.3066 22.7484 17.2634 21.5625 17.2634ZM21.5625 9.74351C20.3766 9.74351 19.4062 8.78667 19.4062 7.58726C19.4062 6.40132 20.3766 5.43101 21.5625 5.43101C22.7484 5.43101 23.7188 6.38784 23.7188 7.58726C23.7188 8.7732 22.7484 9.74351 21.5625 9.74351ZM30.1875 16.1988C29.0016 16.1988 28.0312 15.2419 28.0312 14.0425C28.0312 12.8566 29.0016 11.8863 30.1875 11.8863C31.3734 11.8863 32.3438 12.8431 32.3438 14.0425C32.3438 15.2285 31.3734 16.1988 30.1875 16.1988ZM30.1875 8.66538C29.0016 8.66538 28.0312 7.70855 28.0312 6.50913C28.0312 5.3232 29.0016 4.35288 30.1875 4.35288C31.3734 4.35288 32.3438 5.30972 32.3438 6.50913C32.3438 7.69507 31.3734 8.66538 30.1875 8.66538Z" fill="#C1DEE2"/>
</svg>
