<svg width="164" height="342" viewBox="0 0 164 342" fill="none" xmlns="http://www.w3.org/2000/svg">
<path opacity="0.2" fill-rule="evenodd" clip-rule="evenodd" d="M123.159 7.05436C125.216 6.0343 127.959 7.21734 126.815 9.91395C125.589 12.8016 121.059 12.8373 118.5 12.7801C118.756 12.7666 119.581 10.1186 119.863 9.71846C120.696 8.53806 121.895 7.6826 123.159 7.05436ZM99.4732 59.6697C98.7466 60.2909 99.4141 59.728 99.4732 59.6697V59.6697ZM125.55 20.4614C126.78 21.3924 126.838 23.0371 125.832 24.1509C124.635 25.4769 122.449 25.4298 120.818 25.3014C120.08 25.2433 116.139 24.9328 117.074 24.2937C117.002 24.3206 116.852 24.3859 116.691 24.4747C116.605 24.7874 116.514 25.0991 116.419 25.4094C116.442 25.4228 116.462 25.4372 116.487 25.4505C116.46 25.4389 116.441 25.4263 116.417 25.4145C115.468 28.5157 114.118 31.4687 112.35 34.2317C113.011 33.9737 113.696 33.7782 114.39 33.691C116.446 33.4325 120.77 35.0125 118.469 37.7244C116.263 40.3242 112.831 37.5379 110.329 37.1547C107.9 40.5108 105.222 43.7273 102.416 46.8365C102.588 46.8897 102.739 47.0007 102.825 47.1735C103.951 46.6077 105.123 45.7984 106.165 45.5789C107.668 45.2627 110.749 45.0698 111.884 46.4012C113.28 48.0383 111.782 49.3694 110.131 49.6843C107.738 50.1411 104.606 48.9849 102.304 48.2037C102.041 48.2499 101.753 48.1738 101.582 47.9652C101.531 47.9488 101.48 47.9325 101.43 47.9168C98.5888 51.0108 95.6385 54.0027 92.7062 56.9291C92.7374 56.9275 92.7686 56.9256 92.8011 56.9239C93.5659 56.4269 94.3861 56.019 95.2751 55.8052C97.3316 55.3078 99.7509 55.3041 101.419 56.7767C103.08 58.243 103.668 60.8087 101.947 62.457C98.5036 65.7564 93.4362 58.24 91.7002 57.927C88.7203 60.8697 85.5696 63.6193 82.3695 66.3134C82.7328 66.2037 83.1054 66.123 83.4904 66.0866C86.6273 65.7876 93.9879 69.5923 90.1364 73.3413C86.7801 76.6083 82.9006 70.3255 80.1983 68.129C77.1827 70.6401 74.1507 73.1339 71.2038 75.725C72.8106 75.3017 74.3632 75.2386 76.0852 75.7532C77.867 76.2863 80.7419 77.6175 79.6141 80.0009C78.4671 82.4247 75.0145 81.3238 73.2164 80.5554C72.2357 80.1363 70.2697 78.7211 68.5432 78.1254C63.8405 82.5227 59.7666 87.3655 56.6814 93.0694C54.7553 96.6308 53.2931 100.435 52.2633 104.346C51.6059 106.841 50.3111 111.033 50.5682 114.281C49.3381 107.78 51.5724 99.9711 53.978 94.1589C56.1899 88.8143 59.4985 84.1217 63.3731 79.8974C62.4028 77.0032 54.2253 72.8323 59.1166 70.1404C61.714 68.7171 64.3723 71.0753 64.9387 73.5739C65.3277 75.2909 64.7326 77.4489 64.1013 79.1159C65.3202 77.8281 66.5873 76.5817 67.8929 75.3767C69.6971 73.7112 71.5446 72.094 73.4097 70.4971C70.3391 67.6404 67.4358 59.4707 71.5556 58.1322C77.6392 56.1614 74.7047 67.3087 74.2793 69.3979C74.1588 69.405 74.0649 69.369 73.9959 69.2917C74.03 69.483 74.0696 69.6876 74.1176 69.8938C77.6874 66.8535 81.3101 63.8728 84.8135 60.7598C84.4981 60.529 83.997 59.6469 83.603 59.1774C82.714 58.119 81.8633 57.0133 81.2419 55.775C80.2603 53.818 79.3142 50.6962 81.9196 49.5435C84.753 48.2877 86.0974 51.8183 86.1161 53.9249C86.1288 55.3819 85.7274 56.7662 85.518 58.1943C85.4525 58.6398 85.7027 60.6473 85.0905 59.7839C85.1192 60.1024 85.1233 60.333 85.1088 60.4965C85.7378 59.9348 86.362 59.3671 86.9821 58.7952C86.9535 58.7231 86.9322 58.6444 86.9275 58.5532C86.8945 57.9251 87.5328 57.6829 87.9802 57.8666C88.7986 57.0964 89.609 56.3165 90.4049 55.5211C92.0918 53.836 93.8032 52.1027 95.5028 50.3326C95.1345 50.0193 95.2813 49.585 94.9367 49.2523C94.5928 48.9203 93.9151 48.737 93.5107 48.4287C92.4933 47.6528 91.6499 46.522 91.0402 45.4091C90.0334 43.5702 88.7332 39.7123 91.6773 38.8341C94.712 37.9275 96.2503 41.641 96.4442 43.9632C96.4819 44.4131 96.1397 48.4669 95.8785 49.939C99.0234 46.6494 102.117 43.2364 104.919 39.7642C104.07 39.7568 101.663 38.0349 101.177 37.565C99.9897 36.4188 98.1031 33.8856 100.186 32.5435C102.038 31.3532 104.319 33.0748 105.11 34.7486C105.24 35.0243 105.697 37.59 105.732 38.7413C106.892 37.2689 107.999 35.7878 109.029 34.3021C109.715 33.3143 110.357 32.3004 110.957 31.265C110.813 31.184 110.677 31.0427 110.549 30.867C107.462 30.3496 103.527 25.5805 107.155 23.9187C108.882 23.1284 110.754 24.7569 111.599 26.0904C111.772 26.3632 112.052 27.7352 112.28 28.8173C114.008 25.3873 115.328 21.7564 116.334 18.0337C116.065 17.9677 115.838 17.7645 115.808 17.4147C114.309 16.5691 113.126 15.865 112.08 14.2379C111.431 13.2274 110.261 10.9183 112.172 10.3562C114.658 9.62491 116.218 13.3844 116.42 15.2365C116.444 15.4515 116.442 16.0768 116.434 16.6498C116.52 16.6381 116.607 16.6394 116.693 16.6543C117.265 14.3492 117.722 12.0144 118.086 9.67584C116.729 9.24404 116.498 2.18714 117.402 1.18184C119.422 -1.06914 120.845 2.1803 120.737 3.89813C120.608 5.92363 119.681 7.76656 118.576 9.40227C118.458 9.5755 118.492 9.56708 118.461 9.32587C118.444 9.44511 118.404 9.53312 118.344 9.59689C118.4 10.663 118.511 11.7545 118.457 12.698C118.303 15.3998 117.984 18.1174 117.521 20.7846C117.408 21.4333 117.279 22.0767 117.135 22.7146C118.226 21.7939 119.697 20.9756 120.272 20.7197C121.766 20.056 124.068 19.3392 125.55 20.4614ZM50.3239 114.024C50.396 114.893 50.6101 115.685 51.0316 116.334C50.7222 115.592 50.4901 114.819 50.3239 114.024Z" fill="#C1DEE2"/>
<g opacity="0.5">

<path opacity="0.5" fill-rule="evenodd" clip-rule="evenodd" d="M104.416 95.5201C106.878 92.0096 111.446 83.094 114.912 81.8395C117.144 81.0316 116.493 89.3893 116.52 90.983C116.628 97.1485 116.027 103.275 115.286 109.389C113.951 120.415 109.584 130.235 103.595 139.619C100.513 144.448 96.8979 149.335 91.8911 152.348C89.5865 153.736 86.8134 153.968 84.5374 155.164C81.8867 156.555 83.3303 155.43 82.1357 158.192C80.4768 162.027 79.9462 166.975 79.1786 171.067C75.6543 189.851 67.1222 289.15 68.6013 308.258C68.7327 309.951 66.3712 310.356 66.2533 308.289C65.6267 297.326 71.0487 221.411 73.7842 196.584C76.5198 171.757 79.2879 149.824 82.0636 141.235C85.4309 130.815 91.5125 118.283 96.5749 108.566C98.9264 104.051 101.49 99.6919 104.416 95.5201Z" fill="#69A1AC"/>

<path opacity="0.5" fill-rule="evenodd" clip-rule="evenodd" d="M122.69 217.283C129.096 212.58 136.031 221.457 130.233 226.161C127.029 228.761 123.678 227.836 121.792 225.669C120.567 227.162 119.421 228.722 118.32 230.04C114.965 234.057 111.794 238.17 108.763 242.378C102.468 251.121 97.0723 260.358 91.4311 269.426C85.864 278.376 80.3414 287.371 75.2955 296.547C71.0209 304.322 65.3234 313.468 63.8599 321.991C66.0804 303.915 74.5062 286.54 84.5399 270.605C94.492 254.8 105.913 237.54 121.323 225.067C119.754 222.761 119.711 219.469 122.69 217.283Z" fill="#C1DEE2"/>

<path opacity="0.5" fill-rule="evenodd" clip-rule="evenodd" d="M1.12088 173.199C4.70597 173.9 10.564 182.01 13.5191 185.1C17.0312 188.772 20.2174 192.686 23.2209 196.786C29.6867 205.613 35.4692 214.998 40.3863 224.784C48.4025 240.738 54.8245 257.115 59.4852 274.488C62.3382 285.123 64.1854 296.145 65.2802 307.09C65.4869 309.154 67.6511 325.069 64.5327 325.498C61.7279 325.884 62.5942 313.414 62.4589 311.717C60.9294 292.58 56.3474 273.959 49.9739 255.921C48.5856 251.991 47.2959 247.179 45.0758 243.642C43.477 241.095 45.0643 241.984 42.2546 241.02C39.8421 240.192 37.0933 240.394 34.6228 239.38C29.2558 237.179 24.9584 232.906 21.1914 228.609C13.8709 220.256 8.06978 211.22 5.04589 200.518C3.36844 194.583 1.82695 188.615 0.971524 182.497C0.750239 180.916 -1.18824 172.747 1.12088 173.199Z" fill="#69A1AC"/>

<path opacity="0.5" fill-rule="evenodd" clip-rule="evenodd" d="M15.2686 38.2638C28.7728 61.6836 39.8701 87.4097 47.0357 113.466C51.3771 129.254 54.4133 145.454 57.4299 161.537C62.1006 186.44 66.5186 211.341 67.7753 236.686C69.0396 262.178 71.5397 291.58 63.1924 316.133C67.3619 291.205 63.3923 264.671 62.6894 239.589C62.3535 227.615 61.3802 215.758 60.1034 203.854C58.8644 192.306 56.8402 180.814 54.9552 169.357C54.0369 163.777 53.0726 158.206 52.0908 152.638C51.7977 150.976 51.6738 146.047 50.62 144.912C49.5594 143.77 44.1478 143.304 42.4488 142.466C39.0277 140.777 35.8096 138.379 32.9616 135.846C27.5018 130.988 22.7521 124.642 19.0032 118.385C10.3293 103.909 6.86145 86.2431 7.03673 69.4779C7.07041 66.2229 12.3052 31.1712 10.2029 30.6886C10.3294 30.5403 10.4492 30.3872 10.5621 30.228C12.1538 32.893 13.7157 35.5761 15.2686 38.2638Z" fill="#89C5CC"/>

<path opacity="0.5" fill-rule="evenodd" clip-rule="evenodd" d="M161.024 122.73C161.233 122.429 162.589 120.339 161.906 120.472C163.296 120.2 159.993 122.778 163.458 121.196C161.813 122.75 162.762 124.768 162.784 126.859C162.82 130.254 162.252 133.62 161.613 136.942C160.602 142.193 159.097 147.298 156.913 152.182C152.151 162.826 144.066 173.072 134.468 179.726C129.73 183.011 125.086 184.13 119.681 185.642C116.268 186.597 115.997 188.363 114.185 191.676C110.413 198.575 106.708 205.449 103.381 212.581C99.4086 221.097 95.5524 229.623 91.9148 238.289C79.6604 267.481 69.6865 297.724 64.4486 329.022C64.3203 310.578 68.587 291.582 73.9691 274.002C77.8896 261.193 82.9934 248.846 88.4371 236.624C89.7562 233.663 91.7552 229.854 92.3154 226.585C92.7076 224.295 91.5084 222.092 90.9594 219.679C88.8188 210.284 88.972 199.757 90.8517 190.311C92.9242 179.895 98.9179 175.06 109.057 173.585C112.765 173.045 117.478 173.243 120.878 171.662C124.582 169.94 126.11 164.281 128.217 160.648C133.875 150.89 140.597 141.531 148.316 133.309C150.453 131.032 152.752 128.932 155.19 126.985C156.728 125.756 159.976 124.243 161.024 122.73Z" fill="#89C5CC"/>

<path opacity="0.5" fill-rule="evenodd" clip-rule="evenodd" d="M47.3333 309.103H83.3158C84.9336 309.103 86.2451 310.414 86.2451 312.032C86.2451 312.175 86.2346 312.318 86.2138 312.459L83.4326 331.318C82.5848 337.066 77.6517 341.325 71.8406 341.325H58.8084C52.9974 341.325 48.0642 337.066 47.2164 331.318L44.4353 312.459C44.1993 310.859 45.3054 309.37 46.9059 309.134C47.0474 309.113 47.1903 309.103 47.3333 309.103Z" fill="#C1DEE2"/>
</g>
</svg>
