<svg width="221" height="305" viewBox="0 0 221 305" fill="none" xmlns="http://www.w3.org/2000/svg">
<g clip-path="url(#clip0_63_50)">

<path fill-rule="evenodd" clip-rule="evenodd" d="M6.70939 10.8924C3.47613 9.24758 -0.834129 11.1552 0.963919 15.5034C2.88994 20.1596 10.011 20.2171 14.0327 20.1248C13.6301 20.1032 12.334 15.8333 11.8902 15.1881C10.5815 13.2848 8.69711 11.9054 6.70939 10.8924ZM43.9623 94.3738C44.778 95.0893 44.0287 94.4409 43.9623 94.3738V94.3738ZM3.5947 31.9526C1.70263 33.4365 1.61238 36.0563 3.15797 37.8296C4.9984 39.9407 8.35898 39.8638 10.8675 39.6581C12.0023 39.5649 18.0613 39.0672 16.6251 38.05C16.7356 38.0928 16.9663 38.1967 17.2132 38.3379C17.3461 38.836 17.4856 39.3323 17.631 39.8264C17.5954 39.8478 17.565 39.8708 17.5269 39.892C17.5682 39.8735 17.5972 39.8534 17.6335 39.8346C19.0905 44.7734 21.1646 49.476 23.8803 53.8754C22.8643 53.465 21.8119 53.1542 20.7444 53.0159C17.5835 52.6058 10.9339 55.1258 14.4697 59.4436C17.8599 63.5828 23.138 59.142 26.9857 58.5297C30.7178 63.8733 34.8326 68.9944 39.1449 73.9444C38.8807 74.0293 38.6488 74.2062 38.5159 74.4816C36.7859 73.5812 34.9832 72.2931 33.3821 71.9444C31.0717 71.4419 26.3342 71.1372 24.588 73.2588C22.4403 75.8675 24.7425 77.9865 27.28 78.4868C30.9593 79.2124 35.7758 77.3682 39.3162 76.1221C39.7211 76.1955 40.1632 76.074 40.4273 75.7417C40.5056 75.7154 40.5838 75.6895 40.6599 75.6644C45.0269 80.5902 49.5609 85.3534 54.0674 90.0122C54.0194 90.0097 53.9715 90.0067 53.9214 90.004C52.7459 89.213 51.485 88.564 50.1183 88.2241C46.9566 87.4335 43.2366 87.4297 40.6709 89.7766C38.1152 92.1135 37.2098 96.2004 39.8539 98.8245C45.1462 104.077 52.9438 92.1008 55.6134 91.6008C60.1929 96.2856 65.0353 100.663 69.9538 104.951C69.3953 104.777 68.8224 104.649 68.2304 104.591C63.4073 104.117 52.0867 110.183 58.0057 116.152C63.1638 121.353 69.1339 111.342 73.2907 107.841C77.9255 111.839 82.5856 115.808 87.1148 119.933C84.6446 119.26 82.2572 119.161 79.6091 119.982C76.869 120.833 72.4475 122.955 74.1797 126.751C75.9415 130.61 81.251 128.854 84.0164 127.629C85.5247 126.96 88.5488 124.705 91.2039 123.754C98.4314 130.755 104.692 138.465 109.431 147.548C112.39 153.219 114.635 159.278 116.215 165.505C117.224 169.48 119.212 176.155 118.814 181.329C120.711 170.973 117.281 158.537 113.587 149.281C110.19 140.77 105.106 133.298 99.152 126.573C100.646 121.962 113.223 115.312 105.705 111.028C101.712 108.763 97.6226 112.521 96.7498 116.502C96.1504 119.237 97.0637 122.674 98.0329 125.328C96.1598 123.278 94.2125 121.294 92.206 119.376C89.433 116.724 86.5936 114.15 83.727 111.608C88.4508 107.055 92.9213 94.0401 86.5877 91.9115C77.2351 88.7772 81.7384 106.53 82.3908 109.858C82.5761 109.869 82.7205 109.812 82.8267 109.688C82.7741 109.993 82.7131 110.319 82.6391 110.648C77.1525 105.808 71.5847 101.063 66.2002 96.1075C66.6853 95.7396 67.4566 94.3341 68.0626 93.5859C69.4305 91.8994 70.7393 90.1377 71.6958 88.1647C73.2067 85.0468 74.664 80.0737 70.6588 78.2397C66.303 76.2416 64.2331 81.8664 64.2027 85.2219C64.182 87.5425 64.7981 89.7471 65.119 92.0217C65.2193 92.7311 64.833 95.9289 65.7751 94.5533C65.7306 95.0605 65.7242 95.4278 65.7463 95.6883C64.7796 94.7942 63.8204 93.8903 62.8672 92.98C62.9113 92.865 62.9441 92.7397 62.9515 92.5944C63.0026 91.594 62.0214 91.2087 61.3333 91.5017C60.0756 90.2756 58.8301 89.0339 57.607 87.7677C55.0144 85.0849 52.3843 82.3256 49.7724 79.5076C50.339 79.0081 50.1137 78.3165 50.6437 77.7863C51.1728 77.2573 52.2149 76.9647 52.837 76.4733C54.4019 75.2366 55.6996 73.4349 56.6381 71.6617C58.1875 68.7319 60.1899 62.5859 55.6635 61.1894C50.9981 59.7478 48.63 65.6641 48.33 69.363C48.2716 70.0796 48.7946 76.5364 49.195 78.881C44.362 73.6437 39.6085 68.21 35.3019 62.6816C36.6077 62.6693 40.3097 59.9246 41.0581 59.1757C42.8842 57.349 45.7871 53.3127 42.5856 51.1767C39.739 49.2822 36.2303 52.0262 35.013 54.693C34.8129 55.1321 34.1074 59.2193 34.0524 61.0531C32.2699 58.7087 30.5696 56.3506 28.9877 53.9848C27.9327 52.412 26.9468 50.7976 26.0244 49.1489C26.2465 49.0198 26.4554 48.7946 26.6527 48.5146C31.4003 47.688 37.4532 40.0886 31.8767 37.4445C29.2216 36.1873 26.3422 38.7825 25.0416 40.9073C24.7751 41.342 24.3436 43.5275 23.9923 45.2513C21.3387 39.7894 19.3108 34.007 17.7674 28.0782C18.1806 27.973 18.5307 27.6491 18.5768 27.092C20.8818 25.7439 22.702 24.6213 24.311 22.029C25.3107 20.4188 27.1109 16.7399 24.1737 15.8462C20.3514 14.6834 17.9503 20.6728 17.6376 23.623C17.6012 23.9654 17.6025 24.9614 17.6151 25.8741C17.4824 25.8555 17.3483 25.8576 17.2167 25.8815C16.3388 22.2103 15.6381 18.4919 15.0808 14.7673C17.1671 14.0784 17.5279 2.83789 16.1388 1.23737C13.0339 -2.34638 10.8434 2.83051 11.0091 5.56661C11.2049 8.79273 12.6299 11.7274 14.3267 14.3319C14.5088 14.6077 14.4568 14.5943 14.504 14.2101C14.53 14.4 14.592 14.5402 14.6839 14.6417C14.5963 16.3399 14.4256 18.0785 14.5076 19.5812C14.7425 23.8846 15.2312 28.213 15.9406 32.4609C16.1132 33.4941 16.3108 34.5188 16.5324 35.5347C14.8555 34.0691 12.5946 32.7669 11.71 32.3597C9.41387 31.3039 5.87532 30.1639 3.5947 31.9526ZM119.083 181.343C118.977 182.844 118.713 184.218 118.22 185.351C118.589 184.061 118.873 182.72 119.083 181.343Z" fill="#F2F2F2"/>
<g opacity="0.7">

<path opacity="0.7" fill-rule="evenodd" clip-rule="evenodd" d="M69.6031 112.533C78.5829 112.055 89.6883 117.432 90.6463 127.446C91.3422 134.722 91.1267 141.977 92.2037 149.242C93.0649 155.048 94.8863 160.622 97.3704 165.911C99.759 170.997 104.714 175.326 106.003 180.759C106.824 184.221 106.364 189.091 105.232 192.477C103.854 196.595 104.586 196.269 107.331 199.724C112.71 206.494 117.553 213.437 120.978 221.523C125.911 233.17 129.145 246.783 127.314 259.532C127.081 261.151 126.805 266.961 124.632 267.367C122.205 267.821 123.34 264.498 123.47 263.425C124.295 256.576 125.029 250.59 124.033 243.635C120.19 216.798 101.424 199.117 89.2046 176.34C88.5329 175.166 87.1148 172.369 86.1289 170.524C84.5722 167.611 83.0073 162.067 80.9 159.907C76.9313 155.838 80.58 164.019 81.3533 165.581C82.3311 167.556 83.4067 169.656 84.4087 171.387C88.9931 179.411 94.1103 188.17 98.8451 196.442C78.3675 201.229 63.9459 175.972 58.4506 159.368C53.923 145.688 48.5058 113.703 69.6031 112.533Z" fill="#69A1AC"/>

<path opacity="0.7" fill-rule="evenodd" clip-rule="evenodd" d="M189.958 87.1282C174.947 88.3501 165.31 98.5121 160.824 112.725C158.406 120.385 158.129 128.254 156.786 136.125C154.764 147.968 150.415 156.943 141.916 165.381C139.284 167.994 137.344 170.677 135.965 173.547C133.227 176.413 130.844 179.656 129.094 183.621C126.857 188.685 126.225 194.76 128.807 199.808C129.501 201.165 131.233 203.89 133.028 205.128C126.307 219.811 122.612 235.892 123.029 251.953C123.281 261.648 123.742 271.347 124.28 281.03C124.425 283.63 125.25 287.923 126.49 283.563C127.625 279.574 126.202 273.313 126.07 269.147C125.43 248.849 124.882 230.393 133.027 211.429C133.881 209.441 134.786 207.47 135.729 205.514C135.785 205.481 135.836 205.441 135.888 205.403C135.924 205.431 135.957 205.462 135.993 205.489C136.053 205.379 136.135 205.248 136.232 205.101C136.502 204.815 136.738 204.453 136.963 204.049C137.685 203.022 138.503 201.816 138.507 201.155C138.507 201.15 138.504 201.142 138.504 201.137C143.546 192.693 149.321 184.715 155.22 176.893C155.176 176.95 161.618 167.95 160.622 172.927C160.142 175.326 155.403 179.893 153.489 182.433C149.255 188.085 144.284 195.246 140.152 202.17C139.596 202.498 138.811 204.107 138.243 205.306C137.929 205.913 137.637 206.526 137.349 207.059C151.988 212.021 163.376 202.026 171.141 190.401C171.15 190.387 171.159 190.373 171.167 190.359C173.53 187.147 175.951 183.957 178.975 181.418C184.02 177.181 189.424 176.433 195.372 174.348C211.594 168.662 218.492 147.093 220.682 131.089C223.154 113.034 211.064 85.3479 189.958 87.1282Z" fill="#89C5CC"/>

<path opacity="0.7" fill-rule="evenodd" clip-rule="evenodd" d="M160.306 36.5667C144.899 53.0171 137.456 75.834 131.562 97.2841C124.979 121.242 120.631 145.569 120.464 170.478C120.355 186.843 119.921 203.31 120.852 219.656C121.183 225.461 121.747 231.277 122.644 237.02C122.717 237.492 124.724 250.315 126.644 247.327C127.736 245.627 124.587 234.025 124.349 232.092C123.011 221.208 122.7 210.243 122.765 199.28C122.872 181.229 122.354 163.271 124.137 145.286C124.403 142.601 124.613 139.781 125.235 137.154C125.895 134.361 125.054 135.581 127.204 134.475C129.294 133.4 131.875 133.554 134.043 132.205C142.641 126.856 147.04 113.117 150.463 104.102C154.379 93.7928 156.758 82.7996 158.659 71.9507C160.055 63.9798 161.052 56.0573 161.617 47.9837C161.795 45.4392 161.806 42.7783 162.293 40.2764C162.424 39.6015 163.083 38.4076 163.059 37.8099C163.009 36.545 162.265 35.8011 162.204 34.7382C161.559 35.3336 160.925 35.9436 160.306 36.5667Z" fill="#89C5CC"/>

<path opacity="0.7" fill-rule="evenodd" clip-rule="evenodd" d="M76.2977 255.741C76.2977 282.946 97.7947 305 124.313 305C150.83 305 172.327 282.946 172.327 255.741" fill="#89C5CC"/>

<path opacity="0.7" fill-rule="evenodd" clip-rule="evenodd" d="M128.165 255.898H125.628C125.804 252.632 126.037 249.372 126.569 246.143C128.604 233.793 134.968 215.653 148.925 213.649C149.44 213.574 151.334 213.561 153.629 213.699C154.716 213.076 155.934 212.699 157.218 212.612C169.101 211.714 182.372 221.549 188.104 231.784C192.725 240.036 191.946 250.873 189.092 259.64C187.181 265.509 183.01 273.878 176.053 273.959C167.35 274.061 166.931 263.026 166.762 256.575C166.539 247.998 165.482 240.527 158.895 234.681C157.359 233.319 155.681 232.121 154.13 230.778C151.702 228.675 149.018 226.523 148.706 223.045C148.274 218.248 150.914 217.384 154.944 218.275C155.631 218.427 162.553 221.613 161.528 219.095C161.215 218.326 160.072 217.716 158.63 217.259C154.898 216.843 150.447 216.36 149.167 216.648C135.357 219.757 129.98 239.381 128.553 251.849C128.398 253.195 128.274 254.546 128.165 255.898Z" fill="#69A1AC"/>
</g>
</g>
<defs>
<clipPath id="clip0_63_50">
<rect width="221" height="305" fill="white"/>
</clipPath>
</defs>
</svg>
