<svg width="59" height="61" viewBox="0 0 59 61" fill="none" xmlns="http://www.w3.org/2000/svg">
<path fill-rule="evenodd" clip-rule="evenodd" d="M29.7513 60.2803C45.9241 60.2803 59 47.0177 59 30.6138C59 14.21 45.9241 0.947266 29.7513 0.947266C13.5785 0.947266 0.502594 14.21 0.502594 30.6138C0.502594 47.0177 13.5785 60.2803 29.7513 60.2803ZM29.7513 4.43745C44.0315 4.43745 55.559 16.1296 55.559 30.6138C55.559 45.0981 44.0315 56.7902 29.7513 56.7902C15.471 56.7902 3.94362 45.0981 3.94362 30.6138C3.94362 16.1296 15.471 4.43745 29.7513 4.43745ZM28.2075 43.5174L30.9807 41.2347L21.2238 32.3585H45.2354V28.8683H21.2242L30.9807 19.9924L28.2075 17.7097L13.7756 30.6136L28.2075 43.5174Z" fill="black"/>
</svg>
