<svg width="81" height="81" viewBox="0 0 81 81" fill="none" xmlns="http://www.w3.org/2000/svg">
<path d="M40.5 7.0625C31.6318 7.0625 23.1269 10.5854 16.8561 16.8561C10.5854 23.1269 7.0625 31.6318 7.0625 40.5V47.1875H13.75C15.5236 47.1875 17.2246 47.8921 18.4788 49.1462C19.7329 50.4004 20.4375 52.1014 20.4375 53.875V73.9375C20.4375 75.7111 19.7329 77.4121 18.4788 78.6663C17.2246 79.9204 15.5236 80.625 13.75 80.625H7.0625C5.28886 80.625 3.58787 79.9204 2.33372 78.6663C1.07957 77.4121 0.375 75.7111 0.375 73.9375V40.5C0.375 35.2307 1.41286 30.013 3.42933 25.1448C5.4458 20.2766 8.40139 15.8533 12.1273 12.1273C15.8533 8.40139 20.2766 5.4458 25.1448 3.42933C30.013 1.41286 35.2307 0.375 40.5 0.375C45.7693 0.375 50.987 1.41286 55.8552 3.42933C60.7234 5.4458 65.1467 8.40139 68.8727 12.1273C72.5986 15.8533 75.5542 20.2766 77.5707 25.1448C79.5871 30.013 80.625 35.2307 80.625 40.5V73.9375C80.625 75.7111 79.9204 77.4121 78.6663 78.6663C77.4121 79.9204 75.7111 80.625 73.9375 80.625H67.25C65.4764 80.625 63.7754 79.9204 62.5212 78.6663C61.2671 77.4121 60.5625 75.7111 60.5625 73.9375V53.875C60.5625 52.1014 61.2671 50.4004 62.5212 49.1462C63.7754 47.8921 65.4764 47.1875 67.25 47.1875H73.9375V40.5C73.9375 31.6318 70.4146 23.1269 64.1439 16.8561C57.8731 10.5854 49.3682 7.0625 40.5 7.0625V7.0625Z" fill="black"/>
</svg>
