<svg width="46" height="46" viewBox="0 0 46 46" fill="none" xmlns="http://www.w3.org/2000/svg">
<path d="M23 38.64C14.352 38.64 7.35999 31.648 7.35999 23C7.35999 14.352 14.352 7.36002 23 7.36002C31.648 7.36002 38.64 14.352 38.64 23C38.64 31.648 31.648 38.64 23 38.64ZM23 9.20002C15.364 9.20002 9.19999 15.364 9.19999 23C9.19999 30.636 15.364 36.8 23 36.8C30.636 36.8 36.8 30.636 36.8 23C36.8 15.364 30.636 9.20002 23 9.20002Z" fill="white"/>
<path d="M18.216 18.032C18.492 17.296 18.768 16.744 19.32 16.284C19.78 15.824 20.332 15.456 21.068 15.18C21.804 14.904 22.54 14.812 23.368 14.812C24.012 14.812 24.656 14.904 25.208 15.088C25.76 15.272 26.312 15.548 26.772 15.916C27.232 16.284 27.6 16.744 27.784 17.296C28.06 17.848 28.152 18.492 28.152 19.136C28.152 20.056 27.968 20.792 27.6 21.436C27.232 22.08 26.68 22.632 26.128 23.276L24.932 24.472C24.656 24.748 24.38 25.024 24.288 25.3C24.104 25.576 24.012 25.944 24.012 26.312C23.92 26.68 23.92 26.956 23.92 27.692H22.448C22.448 26.956 22.448 26.68 22.54 26.128C22.632 25.668 22.816 25.208 23 24.748C23.184 24.38 23.46 24.012 23.828 23.644C24.196 23.276 24.656 22.908 25.116 22.356C25.576 21.896 25.944 21.436 26.22 20.976C26.496 20.516 26.68 19.872 26.68 19.32C26.68 18.86 26.588 18.4 26.404 18.032C26.22 17.664 25.944 17.296 25.668 17.02C25.392 16.744 25.024 16.56 24.564 16.376C24.104 16.192 23.736 16.1 23.276 16.1C22.632 16.1 22.08 16.192 21.62 16.468C21.16 16.652 20.7 17.02 20.424 17.388C20.148 17.756 19.872 18.216 19.688 18.768C19.504 19.32 19.32 19.596 19.32 20.24H17.848C17.848 19.412 17.94 18.768 18.216 18.032ZM23.92 29.44V31.28H22.08V29.44H23.92Z" fill="white"/>
</svg>
