<svg width="32" height="31" viewBox="0 0 32 31" fill="none" xmlns="http://www.w3.org/2000/svg">
<path d="M12 19.375L8.04263 23.2087C7.60219 23.6353 7.04107 23.9257 6.43023 24.0434C5.81938 24.1611 5.18623 24.1007 4.61083 23.8698C4.03542 23.6389 3.5436 23.248 3.19754 22.7463C2.85148 22.2447 2.66672 21.6549 2.66663 21.0516V19.375L4.47596 10.6123C4.71762 9.44108 5.37071 8.38712 6.32411 7.62977C7.27752 6.87241 8.47234 6.45846 9.70529 6.45834H22.2946C23.5276 6.45846 24.7224 6.87241 25.6758 7.62977C26.6292 8.38712 27.2823 9.44108 27.524 10.6123L29.3333 19.375V21.0503C29.3332 21.6536 29.1484 22.2434 28.8024 22.745C28.4563 23.2467 27.9645 23.6376 27.3891 23.8685C26.8137 24.0994 26.1805 24.1598 25.5697 24.0421C24.9588 23.9245 24.3977 23.634 23.9573 23.2074L20 19.375H12Z" stroke="#F8F8F8" stroke-width="2" stroke-linecap="round" stroke-linejoin="round"/>
<path d="M12 6.45834L13.3333 9.04167H18.6667L20 6.45834" stroke="#F8F8F8" stroke-width="2" stroke-linecap="round" stroke-linejoin="round"/>
</svg>
