<svg width="164" height="164" viewBox="0 0 164 164" fill="none" xmlns="http://www.w3.org/2000/svg">
<path d="M82 164C127.287 164 164 127.287 164 82C164 36.7127 127.287 0 82 0C36.7127 0 0 36.7127 0 82C0 127.287 36.7127 164 82 164Z" fill="#F2F2F2"/>
<path d="M82 21.6605C84.5635 21.6605 86.6415 19.5824 86.6415 17.019C86.6415 14.4555 84.5635 12.3774 82 12.3774C79.4366 12.3774 77.3585 14.4555 77.3585 17.019C77.3585 19.5824 79.4366 21.6605 82 21.6605Z" fill="black" fill-opacity="0.1"/>
<path d="M17.0189 86.6414C19.5823 86.6414 21.6604 84.5633 21.6604 81.9999C21.6604 79.4365 19.5823 77.3584 17.0189 77.3584C14.4555 77.3584 12.3774 79.4365 12.3774 81.9999C12.3774 84.5633 14.4555 86.6414 17.0189 86.6414Z" fill="black" fill-opacity="0.1"/>
<path d="M146.981 86.6414C149.545 86.6414 151.623 84.5633 151.623 81.9999C151.623 79.4365 149.545 77.3584 146.981 77.3584C144.418 77.3584 142.34 79.4365 142.34 81.9999C142.34 84.5633 144.418 86.6414 146.981 86.6414Z" fill="black" fill-opacity="0.1"/>
<path d="M82 151.623C84.5635 151.623 86.6415 149.545 86.6415 146.981C86.6415 144.418 84.5635 142.34 82 142.34C79.4366 142.34 77.3585 144.418 77.3585 146.981C77.3585 149.545 79.4366 151.623 82 151.623Z" fill="black" fill-opacity="0.1"/>
<path fill-rule="evenodd" clip-rule="evenodd" d="M82 26.3018L85.0943 80.4527H78.9056L82 26.3018Z" fill="#AFB9C5"/>
<path fill-rule="evenodd" clip-rule="evenodd" d="M109.383 109.382L80.9382 85.3141L85.3142 80.938L109.383 109.382Z" fill="#AFB9C5"/>
<path d="M82 88.1889C85.4179 88.1889 88.1887 85.4181 88.1887 82.0002C88.1887 78.5823 85.4179 75.8115 82 75.8115C78.5821 75.8115 75.8113 78.5823 75.8113 82.0002C75.8113 85.4181 78.5821 88.1889 82 88.1889Z" fill="#C5CFD6"/>
</svg>
