<svg width="32" height="32" viewBox="0 0 32 32" fill="none" xmlns="http://www.w3.org/2000/svg">
<path d="M31.7231 30.2813L22.1539 20.5C24.0616 18.1875 25.0154 15.5208 25.0154 12.5C25.0154 10.2292 24.4667 8.13543 23.3693 6.21877C22.2718 4.3021 20.7744 2.78647 18.8769 1.67189C16.9795 0.557307 14.918 1.52588e-05 12.6923 1.52588e-05C10.4667 1.52588e-05 8.41028 0.557307 6.5231 1.67189C4.63592 2.78647 3.14361 4.3021 2.04618 6.21877C0.948742 8.13543 0.400024 10.2292 0.400024 12.5C0.400024 14.7708 0.948742 16.8646 2.04618 18.7813C3.14361 20.6979 4.63592 22.2136 6.5231 23.3281C8.41028 24.4427 10.4718 25 12.7077 25C15.7641 25 18.4513 23.9792 20.7693 21.9375L30.3077 31.6875C30.5128 31.8958 30.7487 32 31.0154 32C31.2821 32 31.5128 31.9011 31.7077 31.7031C31.9026 31.5052 32 31.2656 32 30.9844C32 30.7031 31.9077 30.4688 31.7231 30.2813ZM12.7077 23.0313C10.8205 23.0313 9.08208 22.5573 7.49233 21.6094C5.90259 20.6615 4.64618 19.3802 3.7231 17.7656C2.80002 16.1511 2.33849 14.3958 2.33849 12.5C2.33849 10.6042 2.80002 8.84897 3.7231 7.23439C4.64618 5.61981 5.90259 4.33856 7.49233 3.39064C9.08208 2.44272 10.8154 1.96877 12.6923 1.96877C14.5693 1.96877 16.3026 2.44272 17.8923 3.39064C19.4821 4.33856 20.7385 5.61981 21.6616 7.23439C22.5846 8.84897 23.0462 10.6042 23.0462 12.5C23.0462 13.3125 22.9539 14.1146 22.7693 14.9063C22.5846 15.6979 22.3231 16.4375 21.9846 17.125C21.6462 17.8125 21.2411 18.4636 20.7693 19.0781C20.2975 19.6927 19.7641 20.2396 19.1693 20.7188C18.5744 21.1979 17.9385 21.6094 17.2616 21.9531C16.5846 22.2969 15.8564 22.5625 15.0769 22.75C14.2975 22.9375 13.5077 23.0313 12.7077 23.0313Z" fill="white"/>
</svg>
