<svg width="164" height="312" viewBox="0 0 164 312" fill="none" xmlns="http://www.w3.org/2000/svg">
<g opacity="0.5">
<path opacity="0.5" fill-rule="evenodd" clip-rule="evenodd" d="M104.416 65.5201C106.878 62.0096 111.446 53.094 114.912 51.8395C117.144 51.0316 116.493 59.3893 116.52 60.983C116.628 67.1485 116.027 73.275 115.286 79.3888C113.951 90.4149 109.584 100.235 103.595 109.619C100.513 114.448 96.8979 119.335 91.8911 122.348C89.5865 123.736 86.8134 123.968 84.5374 125.164C81.8867 126.555 83.3303 125.43 82.1357 128.192C80.4768 132.027 79.9462 136.975 79.1786 141.067C75.6543 159.851 67.1222 259.15 68.6013 278.258C68.7327 279.951 66.3712 280.356 66.2533 278.289C65.6267 267.326 71.0487 191.411 73.7842 166.584C76.5198 141.757 79.2879 119.824 82.0636 111.235C85.4309 100.815 91.5125 88.2832 96.5749 78.5656C98.9264 74.051 101.49 69.6919 104.416 65.5201Z" fill="#69A1AC"/>
<path opacity="0.5" fill-rule="evenodd" clip-rule="evenodd" d="M122.69 187.283C129.096 182.58 136.031 191.457 130.233 196.161C127.029 198.761 123.678 197.836 121.792 195.669C120.567 197.162 119.421 198.722 118.32 200.041C114.965 204.057 111.794 208.17 108.763 212.378C102.468 221.121 97.0723 230.358 91.4311 239.426C85.864 248.376 80.3414 257.371 75.2955 266.548C71.0209 274.322 65.3234 283.468 63.8599 291.991C66.0804 273.915 74.5062 256.541 84.5399 240.605C94.492 224.8 105.913 207.54 121.323 195.067C119.754 192.761 119.711 189.469 122.69 187.283Z" fill="#C1DEE2"/>
<path opacity="0.5" fill-rule="evenodd" clip-rule="evenodd" d="M1.12088 143.198C4.70597 143.9 10.564 152.01 13.5191 155.1C17.0312 158.772 20.2174 162.685 23.2209 166.786C29.6867 175.613 35.4692 184.997 40.3863 194.784C48.4025 210.738 54.8245 227.115 59.4852 244.488C62.3382 255.122 64.1854 266.145 65.2802 277.09C65.4869 279.154 67.6511 295.069 64.5327 295.498C61.7279 295.884 62.5942 283.413 62.4589 281.717C60.9294 262.58 56.3474 243.959 49.9739 225.921C48.5856 221.991 47.2959 217.178 45.0758 213.642C43.477 211.095 45.0643 211.983 42.2546 211.019C39.8421 210.191 37.0933 210.394 34.6228 209.38C29.2558 207.179 24.9584 202.906 21.1914 198.608C13.8709 190.256 8.06978 181.22 5.04589 170.517C3.36844 164.583 1.82695 158.614 0.971524 152.497C0.750239 150.916 -1.18824 142.747 1.12088 143.198Z" fill="#69A1AC"/>
<path opacity="0.5" fill-rule="evenodd" clip-rule="evenodd" d="M15.2686 8.26384C28.7728 31.6836 39.8701 57.4097 47.0357 83.4663C51.3771 99.2537 54.4133 115.454 57.4299 131.537C62.1006 156.44 66.5186 181.341 67.7753 206.686C69.0396 232.178 71.5397 261.58 63.1924 286.133C67.3619 261.205 63.3923 234.671 62.6894 209.589C62.3535 197.615 61.3802 185.758 60.1034 173.854C58.8644 162.306 56.8402 150.814 54.9552 139.357C54.0369 133.777 53.0726 128.206 52.0908 122.638C51.7976 120.976 51.6738 116.047 50.62 114.912C49.5594 113.77 44.1478 113.304 42.4488 112.466C39.0277 110.777 35.8096 108.379 32.9616 105.846C27.5018 100.988 22.7521 94.6417 19.0032 88.3854C10.3293 73.9093 6.86145 56.2431 7.03673 39.4779C7.07041 36.2229 12.3052 1.17125 10.2029 0.68856C10.3294 0.540313 10.4492 0.387244 10.5621 0.228027C12.1538 2.89303 13.7157 5.57608 15.2686 8.26384Z" fill="#89C5CC"/>
<path opacity="0.5" fill-rule="evenodd" clip-rule="evenodd" d="M161.024 92.7296C161.233 92.429 162.589 90.3389 161.906 90.4725C163.296 90.2005 159.993 92.7777 163.458 91.1963C161.813 92.7499 162.762 94.768 162.784 96.8589C162.82 100.254 162.252 103.62 161.613 106.942C160.602 112.193 159.097 117.298 156.913 122.182C152.151 132.826 144.066 143.072 134.468 149.726C129.729 153.011 125.086 154.13 119.681 155.642C116.268 156.597 115.997 158.363 114.185 161.676C110.413 168.575 106.708 175.449 103.381 182.581C99.4086 191.097 95.5524 199.623 91.9148 208.289C79.6604 237.481 69.6865 267.724 64.4486 299.022C64.3203 280.578 68.587 261.582 73.9691 244.002C77.8896 231.193 82.9934 218.846 88.4371 206.624C89.7562 203.663 91.7552 199.854 92.3154 196.585C92.7076 194.295 91.5084 192.092 90.9594 189.679C88.8188 180.284 88.972 169.757 90.8517 160.311C92.9242 149.895 98.9179 145.06 109.057 143.585C112.765 143.045 117.478 143.243 120.878 141.662C124.582 139.94 126.11 134.281 128.217 130.648C133.875 120.89 140.597 111.531 148.316 103.309C150.453 101.032 152.752 98.9316 155.19 96.9847C156.728 95.7562 159.976 94.2428 161.024 92.7296Z" fill="#89C5CC"/>
<path opacity="0.5" fill-rule="evenodd" clip-rule="evenodd" d="M47.3333 279.102H83.3158C84.9336 279.102 86.2451 280.414 86.2451 282.032C86.2451 282.175 86.2346 282.318 86.2138 282.459L83.4326 301.317C82.5848 307.066 77.6517 311.325 71.8406 311.325H58.8084C52.9974 311.325 48.0642 307.066 47.2164 301.317L44.4353 282.459C44.1993 280.859 45.3054 279.37 46.9059 279.134C47.0474 279.113 47.1903 279.102 47.3333 279.102Z" fill="#C1DEE2"/>
</g>
</svg>
