<svg width="200" height="508" viewBox="0 0 200 508" fill="none" xmlns="http://www.w3.org/2000/svg">
<path fill-rule="evenodd" clip-rule="evenodd" d="M29.5152 0.375032C45.4305 38.1851 72.485 64.4557 86.8142 103.771C95.3113 127.085 98.8532 152.435 99.0681 178.398C99.1848 192.5 98.9393 206.611 98.8732 220.713C98.8091 234.465 98.4352 248.13 97.2676 261.794C96.0944 275.531 94.7807 289.104 94.2013 302.925C93.7503 313.694 93.5443 326.221 89.893 336.044C86.9895 343.856 79.6099 345 77.6517 335.526C76.5636 330.259 76.7008 324.378 76.8208 318.965C76.9747 312.02 77.3788 305.086 77.5848 298.142C78.4129 270.278 77.3392 242.409 77.9005 214.534C78.4488 187.299 81.9503 160.094 78.0758 133.041C74.8766 110.701 66.7487 91.5166 57.4081 73.1253C48.4214 55.4311 38.6405 38.167 32.5675 18.0401C30.8237 12.2597 29.4757 6.26986 28.8288 0.0542955C29.1116 -0.0769737 29.3403 0.0297229 29.5152 0.375032Z" fill="#C1DEE2"/>
<path fill-rule="evenodd" clip-rule="evenodd" d="M25.1776 74.9698C28.3291 77.245 30.0901 80.5733 32.2202 83.8573C34.8692 87.94 37.9834 91.6259 40.6316 95.7117C46.1537 104.23 51.0052 113.271 56.0389 122.134C65.5957 138.957 72.8516 156.887 76.4454 176.35C80.1705 196.52 81.175 217.339 82.7375 237.809C84.3949 259.506 86.0637 281.36 86.2832 303.141C86.3814 312.899 86.909 323.257 85.7373 332.947C85.0078 338.979 82.2851 344.12 76.1467 344.071C63.1079 343.967 56.9865 329.529 54.429 317.687C50.6645 300.251 49.9134 281.729 50.5094 263.897C51.2294 242.396 54.962 221.217 56.5774 199.799C58.2882 177.124 57.3217 154.851 49.5246 133.501C45.5854 122.713 41.0136 112.182 36.9085 101.465C35.1604 96.9021 33.7286 92.2149 31.3675 87.9659C28.7409 83.2395 25.4804 78.9491 23.4234 73.8584C24.0079 74.2294 24.5931 74.5996 25.1776 74.9698Z" fill="#89C5CC"/>
<path fill-rule="evenodd" clip-rule="evenodd" d="M175.377 29.7553C175.777 29.4447 176.177 29.1341 176.577 28.8228C175.425 33.6734 173.345 37.6135 171.755 42.0475C170.326 46.0337 169.602 50.5447 168.639 54.9018C166.379 65.1353 163.767 75.1381 161.632 85.4588C157.405 105.882 158.205 127.883 160.976 150.541C163.594 171.945 167.734 193.315 169.707 214.714C171.342 232.461 172.045 250.761 170.485 267.693C169.425 279.192 165.951 292.921 156.483 291.761C152.026 291.215 149.701 285.851 148.764 279.797C147.26 270.072 146.945 259.847 146.358 250.177C145.049 228.593 144.789 207.075 144.53 185.713C144.285 165.558 143.612 145.003 144.959 125.356C146.258 106.397 150.322 89.3139 156.132 73.5515C159.192 65.2471 162.108 56.7484 165.546 48.8337C167.195 45.0373 169.209 41.6826 170.859 37.8892C172.185 34.838 173.24 31.707 175.377 29.7553Z" fill="#C1DEE2"/>
<path fill-rule="evenodd" clip-rule="evenodd" d="M29.2051 137.451C30.9292 134.557 34.7244 144.102 35.302 145.302C35.0577 144.705 34.8125 144.109 34.565 143.513C37.9874 149.202 41.1182 155.125 43.0648 161.649C44.9911 168.107 46.6456 174.695 48.453 181.199C51.8443 193.402 56.2192 205.259 59.2918 217.571C62.2857 229.569 63.0406 241.365 62.3159 253.775C61.5626 266.674 61.1018 279.77 61.9805 292.662C62.4002 298.819 64.4013 304.555 65.7728 310.482C67.146 316.416 68.2276 322.428 69.851 328.288C70.2236 327.525 70.2711 330.077 70.2703 330.271C70.2601 331.735 70.0556 332.962 69.5845 334.35C68.3739 337.92 66.1092 340.953 62.663 341.937C56.4352 343.716 50.6527 338.052 48.6443 332.072C45.7632 323.49 44.1756 314.007 42.8025 304.987C41.5437 296.717 41.2458 288.396 41.6198 280.012C42.3565 263.477 45.3495 247.158 46.1591 230.628C47.0403 212.632 43.4739 195.723 40.488 178.205C39.0497 169.764 37.6752 161.403 34.8762 153.361C33.743 150.105 32.2655 147.231 30.7164 144.224C29.8349 142.513 28.0523 139.461 29.2051 137.451Z" fill="#C1DEE2"/>
<path fill-rule="evenodd" clip-rule="evenodd" d="M79.7335 109.341C79.0192 129.958 77.7874 150.418 75.0382 170.818C72.2323 191.636 69.0096 212.382 66.3098 233.218C63.6818 253.5 60.9271 274.119 61.2944 294.684C61.5648 309.832 59.0525 335.458 75.8799 342.934C92.9227 350.506 96.5784 318.173 97.6975 307.501C99.842 287.025 99.1478 266.334 98.107 245.747C97.0385 224.618 95.2548 203.596 93.0442 182.544C90.5889 159.161 88.6624 135.671 87.1161 112.221C86.3512 100.622 86.1627 89.0419 86.3738 77.4399C86.5733 66.4917 86.1572 55.4304 82.264 45.0356C82.06 45.1835 81.8573 45.3314 81.6533 45.4786" fill="#69A1AC"/>
<path fill-rule="evenodd" clip-rule="evenodd" d="M167.717 174.657C164.652 179.121 161.562 183.542 158.668 188.27C153.489 196.73 148.805 206.139 147.396 218.236C144.448 243.553 146.813 270.896 147.384 296.987C147.501 302.319 146.827 307.489 148.928 312.564C150.834 317.165 154.397 320.671 157.794 320.653C165.065 320.611 163.955 302.81 163.967 294.975C163.989 281.242 162.449 267.37 162.581 253.65C162.714 240.058 163.541 226.428 165.512 213.519C167.507 200.452 170.43 187.905 174.287 176.196C174.822 174.571 178.663 162.015 175.034 164.179" fill="#89C5CC"/>
<path fill-rule="evenodd" clip-rule="evenodd" d="M135.608 39.6313C130.827 39.6313 130.857 63.4569 130.713 66.5172C130.193 77.5609 130.315 88.6076 129.987 99.6536C129.268 123.759 128.385 148.076 124.763 171.903C122.813 184.73 120.553 197.5 118.121 210.229C115.682 222.995 112.409 235.746 110.805 248.674C109.264 261.102 110.135 273.775 110.346 286.264C110.557 298.829 110.937 311.418 112.583 323.873C112.99 326.947 113.466 330.011 113.976 333.066C114.4 335.613 114.153 338.77 114.871 341.19C116.023 345.066 120.96 346.334 124.285 345.729C133.28 344.087 139.026 332.794 142.099 324.543C146.023 314.007 148.105 302.58 150.16 291.477C152.488 278.898 153.853 266.127 154.493 253.321C155.794 227.294 154.124 201.24 152.259 175.296C151.222 160.868 150.024 146.503 148.191 132.164C146.365 117.887 144.022 103.673 142.497 89.3529C141.389 78.9466 140.297 68.5263 139.58 58.0802C139.408 55.5894 139.263 39.6313 135.608 39.6313Z" fill="#69A1AC"/>
<path fill-rule="evenodd" clip-rule="evenodd" d="M129.623 212.817C128.844 187.803 118.787 77.9274 116.498 47.6784C115.926 40.1071 110.417 8.58311 109.703 0C107.765 2.42605 107.931 40.1886 107.952 48.8656C107.974 57.4487 106.91 65.8895 106.362 74.4264C105.804 83.1373 92.923 195.636 91.2515 204.006C87.926 220.657 85.7005 237.745 83.9839 254.77C82.3118 271.365 79.7119 288.872 81.9496 305.553C82.4639 309.394 83.2778 313.172 84.603 316.7C86.0347 320.512 87.016 324.037 88.1653 328.026C90.0146 334.45 93.3601 340.089 98.5008 342.741C109.04 348.18 114.7 335.868 117.568 325.15C122.15 308.033 125.091 290.637 126.47 272.66C127.995 252.772 130.247 232.843 129.623 212.817Z" fill="#89C5CC"/>
<path d="M178.378 286.426H21.6216C19.6314 286.426 18.018 288.039 18.018 290.029V446.752C18.018 448.742 19.6314 450.355 21.6216 450.355H178.378C180.369 450.355 181.982 448.742 181.982 446.752V290.029C181.982 288.039 180.369 286.426 178.378 286.426Z" fill="white"/>
<path d="M14.4144 304.44H3.6036C1.61339 304.44 0 306.053 0 308.043V504.397C0 506.387 1.61339 508 3.6036 508H14.4144C16.4046 508 18.018 506.387 18.018 504.397V308.043C18.018 306.053 16.4046 304.44 14.4144 304.44Z" fill="#C5CFD6"/>
<path d="M104.504 304.44H93.6937C91.7035 304.44 90.0901 306.053 90.0901 308.043V504.397C90.0901 506.387 91.7035 508 93.6937 508H104.504C106.495 508 108.108 506.387 108.108 504.397V308.043C108.108 306.053 106.495 304.44 104.504 304.44Z" fill="#C5CFD6"/>
<path d="M196.396 304.44H185.586C183.595 304.44 181.982 306.053 181.982 308.043V504.397C181.982 506.387 183.595 508 185.586 508H196.396C198.387 508 200 506.387 200 504.397V308.043C200 306.053 198.387 304.44 196.396 304.44Z" fill="#C5CFD6"/>
</svg>
