<svg width="32" height="32" viewBox="0 0 32 32" fill="none" xmlns="http://www.w3.org/2000/svg">
<path d="M8 12C8 11.4696 8.21071 10.9609 8.58579 10.5858C8.96086 10.2107 9.46957 10 10 10H16C16.5304 10 17.0391 10.2107 17.4142 10.5858C17.7893 10.9609 18 11.4696 18 12V20C18 20.5304 17.7893 21.0392 17.4142 21.4142C17.0391 21.7893 16.5304 22 16 22H10C9.46957 22 8.96086 21.7893 8.58579 21.4142C8.21071 21.0392 8 20.5304 8 20V12ZM20 14L22.292 11.708C22.4317 11.5679 22.6099 11.4724 22.8039 11.4336C22.998 11.3948 23.1991 11.4145 23.382 11.4901C23.5649 11.5657 23.7212 11.6938 23.8312 11.8583C23.9412 12.0227 24 12.2161 24 12.414V19.586C24 19.7839 23.9412 19.9773 23.8312 20.1418C23.7212 20.3062 23.5649 20.4344 23.382 20.51C23.1991 20.5855 22.998 20.6052 22.8039 20.5664C22.6099 20.5276 22.4317 20.4321 22.292 20.292L20 18V14ZM16 1.52588e-05C18.4162 0.00141169 20.8007 0.550026 22.9746 1.60469C25.1485 2.65935 27.0553 4.19267 28.5519 6.08959C30.0485 7.9865 31.0961 10.1977 31.616 12.5574C32.1359 14.917 32.1146 17.3637 31.5537 19.714C30.9929 22.0642 29.907 24.2569 28.3776 26.1274C26.8483 27.998 24.9151 29.498 22.7232 30.5146C20.5312 31.5313 18.1375 32.0384 15.7217 31.9977C13.3058 31.9571 10.9305 31.3698 8.774 30.28L8.532 30.15L1.242 31.97C1.1017 32.0053 0.95542 32.0097 0.813249 31.983C0.671078 31.9562 0.536402 31.8989 0.418517 31.8151C0.300631 31.7312 0.202342 31.6228 0.130432 31.4973C0.0585217 31.3718 0.0147029 31.2321 0.00199985 31.088V30.924L0.0300002 30.758L1.85 23.47L1.724 23.23C0.808769 21.4283 0.24538 19.4687 0.0640001 17.456L0.0139999 16.692L0 16C0 11.7565 1.68571 7.68689 4.68629 4.68631C7.68687 1.68572 11.7565 1.52588e-05 16 1.52588e-05ZM16 2.00002C13.5569 1.99962 11.1563 2.63854 9.03661 3.8533C6.91694 5.06805 5.15205 6.81634 3.91733 8.92443C2.6826 11.0325 2.02102 13.427 1.99833 15.87C1.97565 18.313 2.59264 20.7194 3.788 22.85C3.8808 23.0157 3.92451 23.2044 3.914 23.394L3.886 23.582L2.374 29.624L8.422 28.116C8.54495 28.0857 8.67253 28.0789 8.798 28.096L8.98 28.138L9.154 28.216C11.0207 29.261 13.102 29.8644 15.2382 29.9797C17.3744 30.095 19.5086 29.7192 21.4769 28.8812C23.4453 28.0432 25.1954 26.7652 26.5929 25.1454C27.9903 23.5257 28.998 21.6072 29.5386 19.5373C30.0791 17.4674 30.1381 15.3012 29.711 13.205C29.2839 11.1088 28.3821 9.13829 27.0748 7.44489C25.7675 5.75149 24.0895 4.38021 22.1697 3.43634C20.2499 2.49246 18.1393 2.00111 16 2.00002Z" fill="white"/>
</svg>
