<?xml version="1.0" ?><!DOCTYPE svg  PUBLIC '-//W3C//DTD SVG 1.1//EN'  'http://www.w3.org/Graphics/SVG/1.1/DTD/svg11.dtd'><svg height="512px" style="enable-background:new 0 0 512 512;" version="1.1" viewBox="0 0 512 512" width="512px" xml:space="preserve" xmlns="http://www.w3.org/2000/svg" xmlns:xlink="http://www.w3.org/1999/xlink"><g id="_x35_53_x2C__group_x2C__multiplayer_x2C__people_x2C__team_x2C__online"><g><path d="M196.399,284.713l-2.853,55.099h46.915h0.06h24.464h0.095h46.975    l-1.923-56.401l-9.768,8.713l-0.031,0.031l-0.028,0.031l-0.031,0.03l-47.038,42.076c-1.457,1.396-3.815,1.427-5.271,0    L196.399,284.713z M293.482,239.598c-11.971,5.146-25.146,7.969-39.008,7.969c-14.943,0-29.115-3.317-41.826-9.271v51.44    l38.043,36.589l42.791-38.295V239.598z M261.233,372.027h-16.929l-11.192,54.169h39.316L261.233,372.027z M238.447,364.4h25.889    h0.092h2.636l-4.899-16.961h-18.79L238.447,364.4z M163.501,146.174l-0.032,2.48v0.218v0.217l0.032,0.248v0.217v0.218v0.031v0.186    v0.248v0.217v0.217v0.248v0.063v0.155l0.032,0.217v0.248v0.217v0.217v0.124l0.031,0.094v0.217v0.248v0.217l0.032,0.217v0.155    v0.062l0.028,0.249v0.216v0.219l0.032,0.217v0.217l0,0l0.032,0.217l0.032,0.465v0.217l0.031,0.218v0.03l0.091,1.147v0.124    l0.095,0.899v0.155v0.062c0.558,5.333,1.58,10.511,3.008,15.535l0.031,0.154l0.558,1.892l0.028,0.093l0.032,0.093l0.063,0.218    c4.464,14.14,12.248,26.759,22.479,36.991c16.466,16.464,39.226,26.635,64.339,26.635c25.054,0,47.719-10.108,64.186-26.449    l0.186-0.186c16.463-16.465,26.666-39.225,26.666-64.371v-0.619v-0.187l-0.032-1.022v-0.094v-0.125v-0.186l0,0l-0.031-0.619    v-0.031v-0.311v-0.063l-0.06-1.209l0,0l-0.063-1.426l-0.032-0.186v-0.031v-0.186v-0.094l-0.031-0.093v-0.218l0,0    c-0.277-3.721-0.771-7.348-1.456-10.914l0,0l-0.526-2.418c-13.736,0-26.792-2.791-38.665-7.846    c-11.072-4.713-21.116-11.379-29.676-19.564c-3.938,3.906-8.185,7.504-12.712,10.729l-0.276,0.154    c-16.095,11.349-35.724,18.015-56.868,18.015c-7.317,0-14.512-0.837-21.489-2.388c-5.612-1.239-11.101-2.976-16.309-5.146    l-0.095,0.217l-0.028,0.187l-0.031,0.062l-0.063,0.217l-0.031,0.094l-0.032,0.125l-0.123,0.433l-0.063,0.218v0.031l-0.06,0.217    l-0.032,0.154l-0.031,0.063l-0.063,0.217l-0.028,0.094l-0.095,0.371v0.031l-0.063,0.187l-0.06,0.217v0.03l-0.063,0.218    l-0.032,0.155v0.062l-0.06,0.249l-0.032,0.062l-0.032,0.155l-0.063,0.217v0.031l-0.091,0.402l-0.032,0.031l-0.031,0.217    l-0.032,0.125l-0.032,0.123l-0.06,0.217v0.063l-0.095,0.402l0,0l-0.06,0.219l-0.032,0.186l-0.031,0.061l-0.032,0.219l-0.154,0.682    l-0.032,0.248h-0.032l-0.06,0.372l-0.032,0.093l-0.031,0.218l-0.032,0.093l-0.063,0.372v0.03l-0.06,0.217l-0.031,0.187v0.031    l-0.032,0.247l-0.032,0.125l-0.031,0.094l-0.028,0.248v0.061l-0.031,0.156l-0.063,0.248l0,0l-0.032,0.217l-0.031,0.186v0.063    l-0.06,0.217v0.155l-0.032,0.093l-0.032,0.217v0.093l-0.031,0.155l-0.032,0.217v0.031l-0.032,0.217l-0.028,0.187l-0.032,0.03    l-0.032,0.248v0.125l-0.031,0.124l-0.032,0.216v0.063l-0.032,0.187l-0.028,0.217l0,0l-0.032,0.248l-0.032,0.187v0.063    l-0.031,0.217l-0.032,0.124v0.124l-0.032,0.217v0.063l-0.028,0.186l-0.032,0.217v0.031l-0.032,0.217v0.186l-0.031,0.063    l-0.032,0.248v0.094v0.123l-0.06,0.279v0.217l-0.032,0.218l0,0l-0.032,0.248v0.154v0.093l-0.031,0.248v0.063l-0.032,0.154v0.249    l-0.032,0.03v0.218l-0.028,0.187v0.03v0.248l-0.032,0.155v0.094l-0.031,0.247v0.062v0.156l-0.032,0.248l0,0v0.248l-0.032,0.186    v0.063l-0.032,0.341v0.124v0.248v0.062l-0.028,0.187l-0.032,1.209l-0.031,0.248v0.031v0.217v0.217v0.031v0.248l-0.032,0.124    V146.174z M166.323,291.969c-0.155,0.093-0.309,0.154-0.463,0.217L78.42,330.292v95.904H225.36l11.195-54.169h-3.134    c-0.372,0-0.712-0.062-1.084-0.154c-1.983-0.59-3.162-2.698-2.573-4.713l5.703-19.721h-45.918c-2.109,0-3.815-1.705-3.815-3.814    l3.194-61.486l-22.51,9.799L166.323,291.969z M163.842,284.775l27.627-12.031l0.031-0.031h0.063l0.031-0.031l0.06-0.031l0,0    l0.063-0.031h0.032h0.031l0.032-0.03h0.06h0.032l0.032-0.031h0.063l0,0l0.091-0.03l0,0l0.063-0.031h0.032h0.028l0.063-0.031h0.032    h0.063l0,0l0.06-0.031h0.032h0.031h0.063h0.028h0.063l0,0l0.063-0.031h0.032h0.06h0.032h0.031h0.063l0,0h0.091l0,0h0.063h0.032    h0.028h0.063h0.031h0.063h0.028h0.032l0.063,0.031l0,0h0.091l0,0h0.063h0.032l0.032,0.031h0.06l0,0h0.095l0,0l0.063,0.031h0.028    h0.032l0.063,0.031l0.063,0.03h0.032h0.06l0.032,0.031h0.032l0.063,0.03h0.06h0.032l0.032,0.031l0.063,0.031l0,0l0.06,0.031l0,0    l0.063,0.031h0.032l0.032,0.031h0.06l0.032,0.03h0.031l0.032,0.032l0.06,0.03l0,0l0.063,0.03h0.031l0.032,0.031l0.032,0.031h0.028    l0.032,0.031h0.032l0.031,0.062h0.032l0.032,0.03l0.06,0.032l0,0l0.063,0.062l0.063,0.031l0,0l0.06,0.031v0.03l0.031,0.032    l0.063,0.03l0,0l0.06,0.063l0,0l0.032,0.03l0.031,0.031l0.032,0.031l0.032,0.031l0.031,0.03l0.028,0.031l9.241,8.868v-48.123    c-7.503-4.341-14.386-9.643-20.496-15.721l-0.06-0.093c-3.692-3.689-7.104-7.688-10.202-11.968l-6.202,12.34l-0.031,0.094    l-0.186,0.341l-26.044,51.595c-0.372,0.745-0.993,1.364-1.769,1.736c-1.923,0.869-4.187,0.063-5.054-1.829l-33.642-71.749    c-11.69,4.525-21.77,8.217-30.294,11.316c-37.706,13.768-44.497,16.248-45.023,42.697c-0.154,6.232,0.871,12.061,2.79,17.456    c1.864,5.116,4.622,9.86,8.093,14.233h15.165l6.573-28.031c0.277-1.085,0.993-2.047,2.046-2.543    c1.892-0.93,4.155-0.154,5.085,1.736l14.108,28.838H163.842z M89.707,159.538c-6.886-9.984-10.886-22.077-10.886-35.068    c0-17.116,6.917-32.619,18.141-43.845c8.9-8.898,20.495-15.1,33.456-17.301l0.154-0.031l0.435-0.062l0.34-0.063l0.281-0.03    l0.495-0.063h0.091l0.589-0.093l0.095-0.032l0.526-0.061l0.25-0.032l0.34-0.03l0.621-0.063l0.586-0.062h0.032l0.59-0.032    l0.186-0.029l0.435-0.031l0.34-0.031h0.281l0.526-0.031h0.091l0.621-0.031h0.063l0.558-0.031h0.246h0.372h0.435h0.186l0.622-0.03    h0.217h0.186l0,0l0.218,0.03h0.186h0.028h0.218h0.186h0.032h0.217h0.154h0.063h0.217h0.155h0.06l0.217,0.031h0.126h0.06h0.218    l0.123,0.031h0.095h0.217h0.091h0.126l0.217,0.031h0.091h0.123l0.218,0.031h0.186l0.218,0.031h0.063h0.155l0.217,0.029h0.032    h0.186l0.186,0.032h0.028l0.622,0.062h0.217l0,0c6.637,0.683,12.992,2.356,18.822,4.961l0.961,0.436l0.06,0.03l0.032,0.03h0.031    c0.839,0.372,1.674,0.807,2.513,1.24l0.06,0.031l0.095,0.031l1.333,0.744l0.063,0.031l0.091,0.063l0.341,0.186l0.154,0.063v0.03    l0.498,0.279l0.091,0.03l0.063,0.063l0.154,0.094l0.063,0.03l0.123,0.062l0.154,0.094l0,0l0.154,0.093l0.158,0.093l0,0    l0.277,0.186l0.063,0.031l0.154,0.094l0.063,0.031l0.246,0.155l0.031,0.03l0.126,0.094l0.154,0.092l0,0l0.155,0.094l0.154,0.093    v0.03l0.186,0.094l0.095,0.063l0.06,0.03l0.154,0.093l0.063,0.063l0.095,0.063l0.154,0.093l0.032,0.03l0.123,0.063l0.155,0.124    l0,0l0.154,0.093l0.126,0.094l0.028,0.03l0.158,0.094l0.091,0.062l0.063,0.063l0.154,0.093l0.032,0.03l0.123,0.063l0.154,0.124    l0,0l0.158,0.093l0.277,0.218l0.123,0.093l0.032,0.031l0.154,0.093l0.095,0.062l0.063,0.063l0.123,0.093l0.063,0.062l0.06,0.031    l0.154,0.125l0.063,0.03l0.095,0.093l0.155,0.094l0.031,0.031l0.123,0.093l0.123,0.093l0.032,0.031l0.154,0.123l0.095,0.063    l0.06,0.031l0.126,0.124l0.06,0.062l0.095,0.063l0.154,0.123h0.032l0.123,0.094l0.126,0.125h0.032l0.123,0.123l0.123,0.094    l0.031,0.031l0.155,0.123l0.063,0.063l0.091,0.062l0.126,0.124l0.031,0.031l0.123,0.094l0.154,0.123l0,0l0.123,0.093l0.126,0.125    h0.032l0.154,0.124l0.06,0.092l0.063,0.031l0.154,0.125l0.032,0.061l0.095,0.063l0.309,0.248l0.123,0.125l0,0l0.154,0.124    l0.095,0.093l0.032,0.031l0.154,0.154l0.063,0.031l0.06,0.094l0.158,0.123l0.028,0.031l0.095,0.094l0.154,0.123l0,0l0.123,0.124    l0.126,0.093l0.032,0.031l0.123,0.156l0.063,0.061l0.091,0.063l0.123,0.124l0.032,0.031l0.93-0.962    c1.955-1.953,4.001-3.813,6.11-5.58c0.34-1.055,0.463-1.706,0.649-2.885l0.063-1.363c0-3.504-1.396-6.697-3.629-8.961    c-2.2-2.264-5.271-3.659-8.651-3.659c-1.271,0-2.509,0.217-3.625,0.558c-1.179,0.373-2.295,0.931-3.32,1.645    c-1.611,1.115-3.811,0.867-5.085-0.651c-1.053-1.241-2.387-2.233-3.843-2.915c-1.396-0.683-2.976-1.055-4.653-1.055    c-0.804,0-1.579,0.094-2.355,0.279c-0.744,0.155-1.457,0.372-2.109,0.683l-0.495,0.217c-1.986,0.651-4.155-0.403-4.836-2.388    c-0.744-2.17-1.955-4.093-3.538-5.643c-1.271-1.241-2.759-2.264-4.401-2.978c-1.674,0.714-3.162,1.736-4.436,2.978    c-1.52,1.52-2.727,3.379-3.471,5.426l-0.217,0.589c-0.867,1.892-3.131,2.729-5.022,1.86c-0.652-0.311-1.333-0.559-2.018-0.713    l-0.246-0.031c-0.744-0.186-1.52-0.279-2.358-0.279c-1.674,0-3.253,0.372-4.619,1.023c-1.457,0.683-2.758,1.675-3.815,2.914    l-0.032,0.032c-1.239,1.487-3.471,1.798-5.085,0.651c-0.962-0.651-2.015-1.211-3.13-1.582l-0.186-0.063    c-1.116-0.341-2.355-0.558-3.661-0.558c-3.379,0-6.447,1.396-8.651,3.659c-2.232,2.264-3.594,5.457-3.594,8.961    c0,0.992,0.091,1.953,0.277,2.791c0.186,0.867,0.467,1.704,0.839,2.479l0.34,0.899c0.495,2.016-0.712,4.093-2.758,4.62    c-2.699,0.683-5.058,2.263-6.7,4.434c-1.643,2.14-2.604,4.837-2.604,7.783c0,18.388-3.906,20.247-7.412,21.704l-0.123,0.063    c-0.712,0.279-1.397,0.559-1.397,6.388c0,3.688,0.59,4.619,1.243,5.735c1.643,2.76,3.688,6.14,3.688,21.333    c0,3.503,1.365,6.667,3.597,8.931c2.201,2.264,5.271,3.658,8.683,3.658C88.56,159.662,89.149,159.631,89.707,159.538z     M167.439,77.4c-1.053,2.513-2.295,4.9-3.688,7.194c-0.993,1.674-2.109,3.317-3.288,4.899l-0.06,0.093l0,0l-0.095,0.124    l-0.091,0.093l-0.063,0.124l-0.095,0.124h-0.028l-0.063,0.093l-0.063,0.124l-0.091,0.093l-0.095,0.125l-0.032,0.031l-0.06,0.062    l-0.063,0.124l-0.091,0.093l-0.095,0.124l-0.063,0.063l-0.028,0.031l-0.063,0.123l-0.095,0.094l-0.091,0.123l-0.095,0.094v0.031    l-0.091,0.094l-0.063,0.092l-0.091,0.124c1.488,1.334,3.036,2.604,4.65,3.783l0.249,0.155c1.706,1.24,3.471,2.355,5.271,3.348    c1.674-2.914,3.502-5.705,5.457-8.402l0.091-0.124l0.063-0.093l0.091-0.124l0.063-0.063l0.091-0.154l0.063-0.063l0.123-0.187    v-0.029c0.871-1.148,1.737-2.296,2.699-3.443l0.032-0.031l0.123-0.186l0.031-0.031l0.155-0.186v-0.031l0.186-0.186l0,0    l0.154-0.217l-0.06-0.063l-0.095-0.093l-0.06-0.031v-0.03l-0.095-0.094l-0.063-0.063l-0.028-0.03l-0.063-0.032l-0.063-0.092    l-0.091-0.063v-0.031l-0.095-0.062l-0.06-0.062l-0.063-0.063h-0.031l-0.063-0.094l-0.091-0.061l-0.031-0.032l-0.063-0.062    l-0.06-0.063l-0.154-0.154l-0.095-0.063l-0.091-0.062l0,0l-0.063-0.093l-0.095-0.063l-0.06-0.062l-0.031-0.032l-0.063-0.061    l-0.091-0.063l-0.031-0.031l-0.063-0.031l-0.063-0.093l-0.432-0.341l-0.063-0.094l-0.063-0.031l-1.116-0.93l0,0l-0.091-0.063    l-0.095-0.063l-0.06-0.061h-0.031l-0.063-0.094l-0.091-0.062l-0.031-0.03l-0.063-0.032l-0.091-0.062l-0.063-0.063l-0.032-0.03    l-0.154-0.124l-0.091-0.031v-0.031l-0.095-0.063l-0.123-0.092l-0.032-0.031l-0.435-0.342l-0.063-0.03l-0.091-0.063l-0.063-0.062    h-0.032l-0.309-0.217l-0.063-0.063l-0.091-0.063l-0.032-0.031l-0.063-0.03l-0.06-0.062l-0.095-0.063l0,0l-0.091-0.063    l-0.063-0.031l-0.091-0.061v-0.032l-0.095-0.03l-0.063-0.063l-0.091-0.062l0,0l-0.063-0.063l-0.091-0.03l-0.095-0.063l0,0    l-0.06-0.063l-0.095-0.062l-0.091-0.062l0,0l-0.095-0.063l-0.063-0.031l-0.091-0.063l0,0l-0.095-0.061l-0.06-0.063l-0.095-0.031    V79.23l-0.091-0.031l-0.063-0.063l-0.095-0.062l0,0l-0.091-0.062l-0.095-0.031l-0.06-0.062l0,0l-0.095-0.063l-0.091-0.063    l-0.063-0.03l0,0l-0.091-0.063l-0.095-0.062l-0.063-0.032h-0.028l-0.095-0.061l-0.123-0.094l-0.032-0.031l-0.095-0.03    l-0.154-0.093V78.27l-0.091-0.031l-0.154-0.094v-0.03l-0.372-0.187l-0.063-0.062L167.439,77.4z M185.825,88.904    c-3.875,4.527-7.163,9.055-10.107,14.108l-0.031,0.093l-0.032,0.031l-0.091,0.154l-0.095,0.156l0,0l-0.091,0.186l-0.063,0.093    l-0.032,0.093l-0.123,0.187l-0.032,0.03c-1.951,3.535-3.72,7.226-5.24,11.039c4.931,2.077,10.107,3.721,15.41,4.898    c6.328,1.428,12.961,2.171,19.783,2.171c19.502,0,37.517-6.139,52.309-16.526l0.218-0.155c5.177-3.658,9.953-7.845,14.231-12.495    h0.031l0.06-0.094l0.063-0.062l0.063-0.062c0.804-0.869,1.58-1.736,2.323-2.636l0.127-0.124l0.06-0.094l0.372-0.434l0.095-0.094    l0.463-0.558l0.063-0.093l0.095-0.124c0.744-0.899,1.425-1.799,2.138-2.698l0.154-0.247l0.126-0.155l0.06-0.063l0.158-0.217    l0.526-0.713l0.154-0.217l0.063-0.094l0.091-0.154l0.187-0.217l0.154-0.248l0.063-0.063l0.096-0.187l0.186-0.217l0.154-0.248    l0.031-0.03l0.123-0.187l0.187-0.248l0.154-0.249l0,0l0.154-0.217l0.313-0.434v-0.063l0.154-0.248l0.154-0.217l0.123-0.186    l0.031-0.063c0.59-0.898,1.147-1.798,1.706-2.697c1.61-2.666,3.07-5.395,4.404-8.186l0.091-0.217l0.095-0.218l0.06-0.124    l0.032-0.093l0.095-0.218l0.091-0.186l0.313-0.651l0.092-0.217l0.063-0.155l0.032-0.062l0.091-0.218l0.095-0.186l0.091-0.217    l0.032-0.094l0.063-0.124l0.092-0.217l0.095-0.216l0.06-0.187l0.031-0.032l0.063-0.217l0.092-0.217l0.095-0.217l0.06-0.094    l0.031-0.123l0.095-0.218l0.091-0.217l0.063-0.186c-8.588-3.628-17.892-5.985-27.595-6.791h-0.095l-0.246-0.03h-0.313l0,0    l-0.309-0.031l-0.281-0.031h-0.031l-0.526-0.031h-0.091l-0.313-0.03h-0.187h-0.154l-0.309-0.032h-0.123h-0.186l-0.313-0.03h-0.06    h-0.249h-0.313h-0.028l-0.313-0.03h-0.277h-0.031l-0.309-0.032h-0.218h-0.126h-0.309h-0.154h-0.155h-0.312h-0.123l-0.217-0.03    h-0.309h-0.063h-0.25h-0.34h-0.898l-0.277,0.03h-0.652h-0.495l-0.403,0.032l-0.776,0.03h-0.154l-0.898,0.03h-0.126l-0.775,0.063    h-0.372l-0.526,0.031l-0.621,0.063l-0.277,0.03l-0.898,0.062l0,0l-0.902,0.094l-0.246,0.031l-0.652,0.062l-0.495,0.063    l-0.372,0.03l-0.744,0.094l-0.155,0.03l-0.902,0.093l-0.091,0.031l-0.775,0.094l-0.372,0.062l-0.526,0.094l-0.59,0.093    l-0.281,0.031l-0.835,0.154h-0.032l-1.084,0.217l-0.653,0.124l-0.463,0.093l-0.403,0.094l-0.712,0.154l-0.158,0.031l-0.867,0.186    l-0.063,0.032l-0.772,0.154l-0.344,0.094l-1.084,0.279l-0.277,0.062l-0.807,0.217h-0.031    c-15.565,4.217-29.424,12.465-40.496,23.504c-1.176,1.178-2.292,2.356-3.408,3.596l-0.063,0.063l-0.063,0.062l-0.06,0.095    l-0.25,0.278l-0.063,0.062l-0.186,0.217l-0.032,0.031L185.825,88.904z M91.132,103.105c2.481,0.961,5.085,1.736,7.721,2.326    c3.72,0.837,7.689,1.271,11.75,1.271c11.536,0,22.233-3.598,30.979-9.706l0.246-0.187c3.04-2.139,5.83-4.588,8.342-7.316    l0.063-0.063l0.06-0.063l0.158-0.154l0.06-0.063l0,0l0.898-0.992v-0.031l0.53-0.619l0.091-0.094l0.032-0.03l0.091-0.124    l0.126-0.125l0.032-0.062l0.309-0.372l0.063-0.094l0.123-0.123l0.091-0.125l0,0l0.095-0.123l0.123-0.156l0.063-0.092l0.032-0.031    l0.091-0.123l0.126-0.156l0.06-0.063l0.032-0.061l0.095-0.125l0.123-0.154l0.032-0.031l0.063-0.094l0.091-0.123l0.095-0.156h0.028    l0.095-0.123l0.091-0.125l0.063-0.123l0.032-0.031l0.091-0.125l0.126-0.154l0.032-0.062l0.154-0.217l0.091-0.124l0.032-0.031    l0.063-0.124l0.091-0.124l0.095-0.124l0,0l0.091-0.155l0.435-0.621l0.063-0.092l0.091-0.124c0.404-0.62,0.808-1.271,1.18-1.892    c0.93-1.551,1.796-3.132,2.572-4.775v-0.031l0.313-0.619l0.028-0.125l0.095-0.186l0.063-0.124l0.028-0.093l0.063-0.094    l0.032-0.124l0.063-0.093l0.028-0.124l0.032-0.093c-4.619-1.799-9.549-2.945-14.698-3.41h-0.06l-1.21-0.094h-0.091l-0.372-0.031    h-0.158h-0.028l-0.186-0.031h-0.126h-0.091h-0.186h-0.032h-0.154l-0.155-0.031h-0.031h-0.186h-0.126h-0.06h-0.186h-0.063h-0.123    h-0.186h-0.032h-0.186h-0.123h-0.063l-0.186-0.03h-0.063h-0.123h-0.186l-0.558,0.03h-0.154h-0.404h-0.281h-0.246l-0.467,0.031    h-0.063l-0.558,0.031h-0.06h-0.467l-0.218,0.031l-0.34,0.031h-0.34l-0.186,0.031l-0.526,0.031l0,0l-0.53,0.061h-0.154    l-0.372,0.063l-0.309,0.031l-0.218,0.031l-0.435,0.031l-0.091,0.03l-0.526,0.063h-0.063l-0.994,0.155l-0.34,0.062l-0.186,0.031    l-1.147,0.217l-0.404,0.063l-0.277,0.062l-0.25,0.031l-0.403,0.094l-0.618,0.154h-0.032l-0.653,0.154l-0.309,0.063l-0.34,0.094    c-9.49,2.449-17.986,7.41-24.714,14.139c-4.278,4.279-7.812,9.24-10.479,14.729l-0.032,0.061    C91.753,101.711,91.441,102.393,91.132,103.105z M153.331,97.587c-2.169,2.046-4.464,3.938-6.914,5.674l-0.249,0.155    c-10.076,7.069-22.355,11.225-35.565,11.225c-4.555,0-9.083-0.497-13.455-1.488c-2.945-0.652-5.83-1.488-8.62-2.574    c-1.147,4.434-1.769,9.086-1.769,13.892c0,14.915,6.047,28.433,15.813,38.2c9.767,9.799,23.286,15.844,38.233,15.844    c3.814,0,7.535-0.402,11.069-1.146c2.481-0.496,4.931-1.209,7.317-2.077c-2.201-7.813-3.443-16.03-3.629-24.495v-0.219v-0.246    v-0.249v-0.465v-0.249l-0.032-0.248v-0.247v-0.218v-0.031v-0.248v-0.278l0.032-0.249v-0.278v-0.217v-0.03v-0.279v-0.248v-0.279    v-0.248l0.032-0.527v-0.279v-0.248l0.031-0.279v-0.526l0.032-0.249v-0.278v-0.249v-0.092l0.032-0.156v-0.279    c0.526-9.549,2.418-18.696,5.457-27.348l0.028-0.092c1.024-3.287,2.358-6.48,3.909-9.645c-2.141-1.178-4.155-2.449-6.078-3.813    l-0.281-0.217C156.837,100.625,155.037,99.137,153.331,97.587z M118.604,218.048l19.938,42.479l22.201-43.999v-33.394    c-2.39,0.807-4.808,1.488-7.286,1.984c-4.095,0.867-8.374,1.332-12.651,1.332c-7.784,0-15.225-1.457-22.079-4.061L118.604,218.048    z M342.844,62.921c-1.951,1.116-3.811,2.356-5.611,3.659l0,0l-0.309,0.248l0,0c-1.457,1.115-2.885,2.264-4.219,3.503l0,0    l-0.867,0.807l0,0l-0.558,0.558l0,0l-0.28,0.28l0,0c-0.744,0.743-1.457,1.487-2.17,2.263l0,0l-0.249,0.311l0,0l-0.775,0.899l0,0    l-0.245,0.278l0,0l-0.25,0.311l0,0l-0.249,0.311l0,0l-0.245,0.31l0,0l-0.25,0.31l0,0l-0.248,0.311l0,0l-0.219,0.31h-0.027    l-0.218,0.311l0,0l-0.249,0.31l0,0l-0.218,0.311h-0.032l-0.217,0.311l0,0l-0.215,0.34c1.797,1.799,3.535,3.69,5.178,5.675    l0.031,0.03l0.123,0.156l0.063,0.061v0.032l0.186,0.187l0.064,0.062l0.122,0.155l0.091,0.124l0.096,0.124L331,85.928h0.031v0.063    l0.186,0.217l0,0l0.218,0.248l0.249,0.279l0.092,0.124l0.126,0.155l0.214,0.279l0.218,0.279l0.154,0.216l0.063,0.063l0.217,0.278    l0.404,0.527l0.06,0.063l0.157,0.217l0.215,0.311l0.217,0.278l0.373,0.527l0.031,0.03l0.218,0.279l0.186,0.248l0.032,0.031    l0.186,0.279l0.218,0.279l0.403,0.589l0.186,0.279l0.867,1.271l2.854,0.063c11.967,0,23.036-3.721,32.091-10.077l0.249-0.187    c3.131-2.201,6.047-4.743,8.651-7.534c0.091-0.154,0.218-0.279,0.341-0.403l0.031-0.03l0.091-0.093l0.126-0.125l0.123-0.123    l0.092-0.125l0.126-0.154l0.091-0.094l0.032-0.031l0.095-0.123l0.123-0.124l0.063-0.093l0.061-0.031l0.094-0.155l0.123-0.124    l0.031-0.031l0.096-0.093l0.091-0.124l0.123-0.154l0,0l0.095-0.125l0.123-0.124l0.094-0.124l0.032-0.031l0.091-0.123l0.123-0.125    l0.063-0.092l0.031-0.063l0.123-0.124l0.095-0.124l0.06-0.063l0.063-0.093l0.095-0.124l0.122-0.156l0.032-0.03l0.06-0.093    l0.127-0.155l0.091-0.124l0.095-0.123l0.123-0.156l0.063-0.092l0.032-0.031l0.122-0.155l0.092-0.124l0.063-0.093l0.032-0.063    l0.123-0.155c0.993-1.364,1.955-2.76,2.821-4.247c1.211-2.017,2.327-4.124,3.289-6.296l0.031-0.092V59.82l0.187-0.435    c-4.841-1.891-10.017-3.132-15.442-3.597h-0.186h-0.032l-0.154-0.031l-0.499-0.031h-0.091h-0.186h-0.063l-0.123-0.029    l-0.403-0.032h-0.154h-0.032h-0.277l-0.126-0.03h-0.186h-0.032h-0.186h-0.154h-0.031h-0.187l-0.123-0.031h-0.095h-0.186h-0.028    h-0.158h-0.186h-0.028h-0.186h-0.127h-0.06h-0.218h-0.063h-0.123h-0.186h-0.467h-0.464H369.2l-0.464,0.031h-0.435l0,0l-0.467,0.03    l0,0l-0.463,0.032l-0.436,0.029l-0.463,0.031l0,0l-0.436,0.031l0,0l-0.467,0.031l0,0l-0.432,0.031l0,0l-0.467,0.062l-0.432,0.032    l0,0l-0.467,0.061l0,0l-0.435,0.063l0,0l-0.432,0.063l0,0l-0.436,0.062h-0.031l-0.436,0.062l0,0l-0.432,0.063l0,0l-0.436,0.063    l0,0l-0.436,0.092l0,0l-0.432,0.063l0,0l-0.435,0.094h-0.032l-0.402,0.093l0,0l-0.432,0.093l0,0l-0.436,0.094l0,0l-0.436,0.092    l0,0l-0.436,0.094l0,0l-0.432,0.093l0,0l-0.435,0.124l0,0l-0.403,0.094l0,0l-0.432,0.123l0,0l-0.436,0.124l0,0l-0.404,0.125l0,0    l-0.435,0.093l0,0l-0.403,0.154l0,0l-0.432,0.125l0,0l-0.404,0.123l0,0l-0.435,0.124l0,0l-0.403,0.155l0,0l-0.4,0.124l0,0    l-0.404,0.155h-0.031l-0.403,0.155l0,0l-0.403,0.155l0,0l-0.404,0.123l0,0l-0.403,0.187l0,0l-0.399,0.155l0,0l-0.404,0.154l0,0    l-0.403,0.155l0,0l-0.372,0.187h-0.031l-0.373,0.154h-0.031l-0.371,0.187l0,0l-0.404,0.187l0,0l-0.372,0.154h-0.031l-0.372,0.187    l0,0l-0.372,0.187h-0.032l-0.371,0.186l0,0l-0.372,0.186h-0.028l-0.372,0.217l0,0l-0.372,0.187l0,0l-0.372,0.218h-0.031    l-0.341,0.186H343.9l-0.372,0.217l0,0l-0.344,0.186l0,0L342.844,62.921z M329.451,97.029l-0.126-0.219l-0.06-0.062l-0.095-0.154    l-0.091-0.125l-0.063-0.093l-0.123-0.186l-0.218-0.279l-0.186-0.279l-0.186-0.247l-0.219-0.28    c-2.976-4.061-6.201-7.752-9.83-11.379l-0.031-0.031l-0.217-0.217l-0.092-0.093c-6.201-6.047-13.302-11.225-21.054-15.286    l-0.095,0.217l-0.028,0.092l-0.031,0.156l-0.127,0.217l-0.091,0.217l-0.095,0.248l-0.031,0.063l-0.06,0.154l-0.096,0.217    l-0.091,0.248l-0.095,0.217l-0.031,0.063l-0.06,0.156l-0.095,0.248l-0.123,0.217l-0.095,0.217v0.031l-0.092,0.217l-0.309,0.65l0,0    l-0.095,0.218c-1.583,3.441-3.285,6.76-5.239,9.953c-1.924,3.194-4.033,6.294-6.324,9.271l-0.158,0.187l0,0l-0.154,0.216    l-0.154,0.187l-0.277,0.341l-0.063,0.062l-0.309,0.404l-0.158,0.216l-0.06,0.063l-0.095,0.124l-0.154,0.186l-0.187,0.218    l-0.154,0.187v0.03l-0.154,0.187l-0.158,0.186l-0.186,0.186l-0.123,0.187l-0.031,0.031l-0.154,0.187l-0.187,0.186l-0.154,0.217    l-0.095,0.093l-0.06,0.093c7.875,7.566,17.147,13.736,27.378,18.108c10.294,4.372,21.552,6.884,33.396,7.163l-0.218-0.652    l-0.127-0.371l0,0v-0.063l-0.122-0.278l-0.063-0.187l-0.06-0.186l-0.126-0.342l-0.123-0.341l-0.249-0.714l-0.123-0.341    l-0.063-0.154l-0.06-0.187l-0.126-0.311v-0.03l-0.031-0.063l-0.65-1.674l-0.122-0.278l-0.032-0.063v-0.031l-0.126-0.342    l-0.028-0.092l-0.094-0.217l-0.032-0.032l-0.06-0.187l-0.063-0.154l-0.032-0.063l-0.091-0.216l-0.032-0.063l-0.063-0.155    l-0.063-0.186l-0.028-0.031l-0.095-0.218l-0.031-0.093l-0.061-0.123l-0.094-0.187l-0.032-0.03l-0.091-0.219l-0.031-0.092    l-0.063-0.155l-0.091-0.187v-0.031l-0.096-0.217l-0.063-0.092l-0.028-0.125l-0.126-0.217l0,0l-0.187-0.402l-0.091-0.219    l-0.032-0.03l-0.095-0.187l-0.186-0.434l-0.028-0.063l-0.063-0.154l-0.095-0.186l-0.028-0.032l-0.094-0.216l-0.032-0.063    l-0.091-0.156l-0.096-0.186v-0.031l-0.217-0.434l-0.092-0.186l0,0l-0.123-0.217l-0.031-0.124l-0.063-0.093l-0.123-0.218l0,0    l-0.095-0.217l-0.06-0.124l-0.063-0.094l-0.095-0.186l-0.028-0.031L335,106.176l-0.063-0.156l-0.277-0.465l-0.096-0.186v-0.031    l-0.122-0.217l-0.032-0.062l-0.091-0.155l-0.095-0.186l0,0l-0.123-0.217l-0.063-0.094l-0.154-0.311l0,0l-0.123-0.217l-0.063-0.125    l-0.063-0.092l-0.123-0.187v-0.03l-0.34-0.59l-0.031-0.031l-0.373-0.65l-0.094-0.124l-0.464-0.806l-0.031-0.032l-0.155-0.278    l-0.094-0.125l-0.123-0.186l0,0l-0.123-0.217l-0.281-0.434l-0.031-0.094l-0.06-0.063l-0.031-0.061l-0.063-0.094l0,0l-0.031-0.063    l-0.061-0.062l0,0l-0.031-0.063l-0.031-0.03l-0.031-0.063l-0.063-0.094l-0.028-0.061l-0.031-0.031l-0.031-0.063l-0.527-0.806    l-0.063-0.063l-0.063-0.093l-0.028-0.063l0,0l-0.158-0.248l-0.122-0.154l-0.249-0.373v-0.03l-0.061-0.062l-0.031-0.063    L329.451,97.029z M383.525,83.634c-2.263,2.17-4.682,4.154-7.226,5.953l-0.245,0.155c-9.862,6.945-21.798,11.162-34.667,11.565    c5.457,9.983,9.24,21.054,10.978,32.743l0.031,0.217l0.028,0.217l0.032,0.217l0.031,0.156v0.061l0.031,0.218l0.031,0.217    l0.032,0.218c0.091,0.837,0.214,1.705,0.309,2.573l0.032,0.217v0.218l0,0l0.031,0.217l0.027,0.217v0.217l0.096,1.086l0,0    l0.031,0.217l0.031,0.217v0.217v0.094l0.028,0.123v0.218l0.031,0.217v0.217l0.032,0.218v0.217v0.031l0.031,0.186v0.248v0.186    l0.031,0.248v0.217l0.031,0.187v0.031v0.217v0.218l0.029,0.217v0.217v0.217v0.154v0.063l0.031,0.217l0.031,0.869v0.123v0.094    v0.248l0.031,2.201l-0.031,1.768v0.154v0.279v0.156v0.154v0.031v0.125l-0.031,0.154v0.154v0.156v0.123v0.156v0.154l-0.031,0.154    v0.094v0.063v0.154v0.124v0.155l-0.029,0.154v0.156v0.154v0.154l-0.031,0.156l0,0v0.278v0.155l-0.031,0.155v0.155v0.154    c-0.186,3.132-0.526,6.264-1.025,9.333v0.093l-0.027,0.188l-0.031,0.093v0.187c2.386,0.836,4.898,1.518,7.471,2.015    c3.503,0.714,7.195,1.085,10.947,1.085c15.469,0,29.486-6.294,39.626-16.434c10.107-10.108,16.371-24.123,16.371-39.596    c0-3.846-0.372-7.597-1.115-11.193c-8.434-0.155-16.467-1.953-23.815-5.085C394.967,92.471,388.829,88.502,383.525,83.634z     M389.447,77.152l-0.559,0.684c4.654,4.246,10.017,7.721,15.877,10.201c5.707,2.418,11.939,3.938,18.45,4.34v-0.031l-0.123-0.248    l-0.095-0.31l-0.032-0.093l-0.186-0.465l-0.06-0.155l-0.063-0.124l-0.095-0.279l-0.091-0.248l-0.032-0.031l-0.122-0.278    l-0.127-0.311l0,0l-0.091-0.279l-0.127-0.278l-0.027-0.063l-0.095-0.186l-0.123-0.279l-0.063-0.154l-0.063-0.125l-0.123-0.279    l-0.092-0.217l-0.031-0.063l-0.154-0.278l-0.127-0.279l0,0l-0.122-0.248l-0.123-0.279l-0.063-0.093l-0.095-0.186l-0.123-0.279    l-0.063-0.124l-0.092-0.124l-0.123-0.279l-0.095-0.217l-0.063-0.063l-0.123-0.248l-0.154-0.279l0,0l-0.123-0.248l-0.158-0.278    l-0.031-0.063L419.4,84.13l-0.154-0.279l-0.063-0.124l-0.06-0.124l-0.157-0.279l-0.123-0.187l-0.032-0.062l-0.154-0.247    l-0.154-0.249l-0.309-0.526l-0.063-0.063l-0.095-0.187l-0.186-0.247l-0.06-0.156l-0.249-0.371l-0.123-0.187l-0.032-0.062    l-0.186-0.249l-0.154-0.247l0,0l-0.187-0.248l-0.154-0.248l-0.031-0.063l-0.158-0.186l-0.154-0.248l-0.091-0.125l-0.095-0.093    l-0.155-0.247l-0.154-0.187l-0.031-0.062l-0.372-0.496l0,0l-0.154-0.218l-0.187-0.249l-0.063-0.061l-0.31-0.404l-0.094-0.123    l-0.092-0.124l-0.186-0.218l-0.154-0.186l-0.032-0.062l-0.186-0.218l-0.187-0.248l0,0l-0.186-0.217l-0.218-0.248l-0.031-0.062    l-0.155-0.187l-0.217-0.248l-0.063-0.063l-0.372-0.402l-0.06-0.094l-0.126-0.154l-0.215-0.217l-0.126-0.156l-0.091-0.092    l-0.218-0.217l-0.154-0.187l-0.063-0.062l-0.218-0.219l-0.154-0.186l-0.063-0.062l-0.214-0.218l-0.189-0.217l-0.028-0.03    l-0.218-0.218l-0.249-0.217l0,0l-0.218-0.217l-0.217-0.217l-0.028-0.031l-0.218-0.218l-0.218-0.216l-0.063-0.063l-0.154-0.154    l-0.25-0.219l-0.06-0.061l-0.154-0.156l-0.249-0.217l-0.095-0.094l-0.123-0.123l-0.249-0.186l-0.154-0.156l-0.092-0.061    l-0.217-0.218l-0.187-0.155l-0.063-0.062l-0.435-0.372l-0.06-0.031l-0.962-0.806l-0.031-0.032l-0.218-0.186l-0.246-0.186    l-0.063-0.031l-0.467-0.372l-0.06-0.031l-0.187-0.155l-0.249-0.186l-0.095-0.063l-0.154-0.123l-0.246-0.186l-0.157-0.094    l-0.526-0.403l-0.092-0.063l-0.467-0.341l-0.06-0.031l-0.28-0.186l-0.218-0.154l-0.032-0.032l-0.277-0.154l-0.249-0.187l0,0    l-0.277-0.186l-1.333-0.838l-0.096-0.062l-1.578-0.899l-0.218,0.496l-0.032,0.125l-0.063,0.092l-0.061,0.125    c-1.024,2.324-2.203,4.558-3.506,6.696c-0.835,1.427-1.765,2.791-2.727,4.155l-0.031,0.031l-0.063,0.124l-0.091,0.093    l-0.187,0.248l0,0l-0.063,0.125l-0.091,0.092l-0.095,0.124l-0.092,0.125v0.03l-0.063,0.094l-0.095,0.092l-0.091,0.125    l-0.096,0.124l-0.027,0.062l-0.063,0.063l-0.063,0.093l-0.091,0.124l-0.095,0.124l-0.063,0.093h-0.028l-0.094,0.124l-0.092,0.124    l-0.095,0.094l-0.063,0.123h-0.027l-0.063,0.094L389.447,77.152z M341.324,292.93c-0.186-0.094-0.372-0.156-0.559-0.249v-0.03    l-23.067-10.047l2.077,60.897c0.064,2.108-1.582,3.845-3.688,3.907l-46.018,0.031l5.612,19.41    c0.157,0.402,0.249,0.898,0.249,1.364c0,2.108-1.706,3.813-3.814,3.813h-3.131l11.195,54.169h146.972v-95.904L341.324,292.93z     M334.846,206.389l-1.271,24.559h28.091h0.094h15.471h0.063h28.186l-1.053-31.225l-4.124,3.721l-0.063,0.031l-0.031,0.031    l-0.031,0.031l-0.028,0.03l-0.063,0.063l-0.031,0.03l-0.031,0.031l-29.27,26.17c-1.457,1.396-3.783,1.426-5.271,0l-28.153-27.1    C336.52,204.002,335.682,205.211,334.846,206.389z M393.82,171.197c-7.195,2.821-15.039,4.371-23.223,4.371    c-4.282,0-8.434-0.434-12.467-1.24c-2.572-0.496-5.085-1.146-7.566-1.984c-1.27,5.209-2.944,10.232-5.021,15.038v12.743    l22.664,21.799l25.613-22.883V171.197z M373.695,254.078h-8.401l-6.481,31.409h21.396L373.695,254.078z M357.541,254.078h-0.276    c-0.345,0-0.716-0.063-1.057-0.155c-2.015-0.59-3.162-2.698-2.604-4.714l3.104-10.666l-27.133,0.031    c-2.109,0-3.814-1.736-3.814-3.813l0.961-18.512c-0.744,0.807-1.487,1.582-2.264,2.356l-0.248,0.218    c-6.788,6.759-14.572,12.526-23.068,17.085v45.362l8.65-7.751l0.063-0.031l0.245-0.248h0.032l0.095-0.094l0.06-0.03l0,0    l0.063-0.032v-0.03l0.186-0.093l0.031-0.031l0,0l0.064-0.031l0,0l0.186-0.093v-0.03h0.06v-0.031h0.063l0,0l0.063-0.031l0,0    l0.061-0.031h0.031c0.898-0.371,1.955-0.403,2.916,0.031l0.713,0.311c0.34,0.093,0.648,0.247,0.961,0.434l27.627,12.03h7.721    L357.541,254.078z M381.729,254.078h-0.28l6.511,31.409h90.261v-58.23l-66.228-28.868l1.207,36.248    c0.063,2.077-1.579,3.844-3.657,3.906h-27.255l2.977,10.357c0.186,0.402,0.277,0.898,0.277,1.363    C385.541,252.373,383.835,254.078,381.729,254.078z M46.081,452.429c-2.109,0-3.815-1.706-3.815-3.783    c0-2.109,1.706-3.813,3.815-3.813h301.385c2.109,0,3.812,1.704,3.812,3.813c0,2.077-1.702,3.783-3.812,3.783H46.081z     M222.57,468.024c-2.109,0-3.815-1.705-3.815-3.814c0-2.107,1.706-3.813,3.815-3.813h208.552c2.109,0,3.815,1.706,3.815,3.813    c0,2.109-1.706,3.814-3.815,3.814H222.57z M452.484,468.024c-2.109,0-3.814-1.705-3.814-3.814c0-2.107,1.705-3.813,3.814-3.813    h26.079c2.074,0,3.812,1.706,3.812,3.813c0,2.109-1.737,3.814-3.812,3.814H452.484z M34.205,467.56    c-2.109,0-3.815-1.705-3.815-3.814c0-2.107,1.706-3.813,3.815-3.813h98.817c2.109,0,3.815,1.706,3.815,3.813    c0,2.109-1.706,3.814-3.815,3.814H34.205z M86.142,297.178c1.797-1.055,4.124-0.404,5.176,1.395    c1.025,1.83,0.404,4.155-1.425,5.178l-31.627,18.264v83.191c0,2.108-1.706,3.814-3.815,3.814s-3.815-1.706-3.815-3.814v-85.361    c0.032-1.303,0.716-2.574,1.923-3.287L86.142,297.178z M419.369,182.514c-1.892-0.898-2.695-3.162-1.766-5.053    c0.898-1.893,3.162-2.698,5.054-1.799l61.175,29.27c1.891,0.899,2.698,3.163,1.8,5.055c-0.898,1.891-3.193,2.697-5.085,1.798    L419.369,182.514z M376.672,246.45l-2.291-7.876h-9.768l-2.295,7.876H376.672z" style="fill-rule:evenodd;clip-rule:evenodd;"/></g></g><g id="Layer_1"/></svg>