<svg width="33" height="31" viewBox="0 0 33 31" fill="none" xmlns="http://www.w3.org/2000/svg">
<path d="M18.55 16.5001C19.6374 16.5001 20.6802 16.9321 21.4491 17.701C22.218 18.4699 22.65 19.5127 22.65 20.6001V23.6751C22.65 27.8858 18.3696 30.8501 11.375 30.8501C4.38038 30.8501 0.0999756 27.8858 0.0999756 23.6751V20.6001C0.0999756 19.5127 0.531938 18.4699 1.30084 17.701C2.06974 16.9321 3.11259 16.5001 4.19998 16.5001H18.55ZM18.55 18.5501H4.19998C3.65628 18.5501 3.13486 18.7661 2.75041 19.1505C2.36596 19.535 2.14998 20.0564 2.14998 20.6001V23.6751C2.14998 26.5595 5.38693 28.8001 11.375 28.8001C17.363 28.8001 20.6 26.5595 20.6 23.6751V20.6001C20.6 20.0564 20.384 19.535 19.9995 19.1505C19.6151 18.7661 19.0937 18.5501 18.55 18.5501ZM28.8 16.5001C29.8874 16.5001 30.9302 16.9321 31.6991 17.701C32.468 18.4699 32.9 19.5127 32.9 20.6001V21.6251C32.9 25.9076 29.6856 28.8001 23.675 28.8001C23.3859 28.8001 23.101 28.7939 22.8263 28.7796C23.2527 28.2835 23.6094 27.7505 23.8964 27.1785L24.0952 26.7419H24.1752C28.7508 26.6087 30.85 24.6181 30.85 21.6251V20.6001C30.85 20.0564 30.634 19.535 30.2495 19.1505C29.8651 18.7661 29.3437 18.5501 28.8 18.5501H24.3494C24.0812 17.7939 23.6675 17.0975 23.1317 16.5001H28.8ZM11.375 0.100098C12.3172 0.100098 13.2502 0.285684 14.1207 0.646262C14.9912 1.00684 15.7822 1.53535 16.4485 2.20161C17.1147 2.86787 17.6432 3.65883 18.0038 4.52934C18.3644 5.39986 18.55 6.33286 18.55 7.2751C18.55 8.21733 18.3644 9.15034 18.0038 10.0209C17.6432 10.8914 17.1147 11.6823 16.4485 12.3486C15.7822 13.0148 14.9912 13.5434 14.1207 13.9039C13.2502 14.2645 12.3172 14.4501 11.375 14.4501C9.47205 14.4501 7.64706 13.6942 6.30149 12.3486C4.95591 11.003 4.19998 9.17803 4.19998 7.2751C4.19998 5.37217 4.95591 3.54718 6.30149 2.20161C7.64706 0.856033 9.47205 0.100098 11.375 0.100098ZM25.725 4.2001C27.0842 4.2001 28.3878 4.74005 29.3489 5.70118C30.31 6.6623 30.85 7.96586 30.85 9.3251C30.85 10.6843 30.31 11.9879 29.3489 12.949C28.3878 13.9101 27.0842 14.4501 25.725 14.4501C24.3657 14.4501 23.0622 13.9101 22.1011 12.949C21.1399 11.9879 20.6 10.6843 20.6 9.3251C20.6 7.96586 21.1399 6.6623 22.1011 5.70118C23.0622 4.74005 24.3657 4.2001 25.725 4.2001ZM11.375 2.1501C10.0157 2.1501 8.71218 2.69005 7.75105 3.65118C6.78993 4.6123 6.24998 5.91586 6.24998 7.2751C6.24998 8.63433 6.78993 9.9379 7.75105 10.899C8.71218 11.8601 10.0157 12.4001 11.375 12.4001C12.7342 12.4001 14.0378 11.8601 14.9989 10.899C15.96 9.9379 16.5 8.63433 16.5 7.2751C16.5 5.91586 15.96 4.6123 14.9989 3.65118C14.0378 2.69005 12.7342 2.1501 11.375 2.1501ZM25.725 6.2501C24.9094 6.2501 24.1273 6.57407 23.5506 7.15074C22.9739 7.72742 22.65 8.50956 22.65 9.3251C22.65 10.1406 22.9739 10.9228 23.5506 11.4995C24.1273 12.0761 24.9094 12.4001 25.725 12.4001C26.5405 12.4001 27.3227 12.0761 27.8993 11.4995C28.476 10.9228 28.8 10.1406 28.8 9.3251C28.8 8.50956 28.476 7.72742 27.8993 7.15074C27.3227 6.57407 26.5405 6.2501 25.725 6.2501Z" fill="white"/>
</svg>
