<svg width="72" height="71" viewBox="0 0 72 71" fill="none" xmlns="http://www.w3.org/2000/svg">
<path d="M47.375 69.775H47.05L46.725 69.45V67.5C46.725 65.55 46.725 62.625 46.725 59.375C46.725 57.1 46.4 55.15 45.425 53.525C52.9 52.225 61.025 48.325 61.025 33.7C61.025 29.8 59.725 26.225 57.45 23.3C58.1 21.35 58.425 17.775 56.8 13.225C56.475 12.9 56.15 12.575 55.825 12.25C55.825 12.25 55.175 11.925 54.525 11.925C52.575 11.925 49.65 12.575 44.775 15.825C42.175 15.5 39.25 14.85 36 14.85C32.75 14.85 29.825 15.175 26.9 15.825C22.35 12.9 19.1 12.25 17.15 12.25C16.5 12.25 16.175 12.575 15.85 12.575C15.525 12.575 14.875 13.225 14.875 13.55C13.25 18.1 13.575 21.675 14.225 23.625C11.95 26.55 10.65 30.125 10.65 34.025C10.65 48.325 19.1 52.225 26.25 53.85C25.925 54.5 25.6 55.475 25.275 56.45C24.625 56.775 23.65 57.1 22.35 57.1C21.05 57.1 19.75 56.775 18.775 55.8L18.45 55.475C18.125 55.15 18.125 54.825 17.8 54.825L17.475 54.5L17.15 54.175C17.15 53.85 14.55 49.95 10 49.625C8.375 49.625 7.075 50.275 6.75 51.25C6.1 52.875 8.05 54.175 9.025 54.825C9.025 54.825 10.975 55.8 12.275 59.375C12.925 61.65 15.85 65.875 22.675 65.875C23.325 65.875 23.975 65.875 24.95 65.875V70.425L24.625 70.75C24.625 70.75 24.3 70.75 24.625 70.75C10 64.9 0.25 51.25 0.25 35.975C0.25 16.15 16.175 0.224976 36 0.224976C55.825 0.224976 71.75 16.15 71.75 35.975C71.75 51.25 62 64.9 47.375 69.775Z" fill="black"/>
</svg>
