<svg width="70" height="70" viewBox="0 0 70 70" fill="none" xmlns="http://www.w3.org/2000/svg">
<path d="M35 0C15.6653 0 0 15.6653 0 35C0 54.3347 15.6653 70 35 70C54.3347 70 70 54.3347 70 35C70 15.6653 54.3347 0 35 0ZM35 13.5484C41.8589 13.5484 47.4194 19.1089 47.4194 25.9677C47.4194 32.8266 41.8589 38.3871 35 38.3871C28.1411 38.3871 22.5806 32.8266 22.5806 25.9677C22.5806 19.1089 28.1411 13.5484 35 13.5484ZM35 62.0968C26.7157 62.0968 19.2923 58.3427 14.3246 52.4718C16.9778 47.4758 22.1714 44.0323 28.2258 44.0323C28.5645 44.0323 28.9032 44.0887 29.2278 44.1875C31.0625 44.7802 32.9819 45.1613 35 45.1613C37.0181 45.1613 38.9516 44.7802 40.7722 44.1875C41.0968 44.0887 41.4355 44.0323 41.7742 44.0323C47.8286 44.0323 53.0222 47.4758 55.6754 52.4718C50.7077 58.3427 43.2843 62.0968 35 62.0968Z" fill="black"/>
</svg>
